<?xml version="1.0" standalone="no"?>
<!DOCTYPE svg PUBLIC "-//W3C//DTD SVG 20010904//EN"
 "http://www.w3.org/TR/2001/REC-SVG-20010904/DTD/svg10.dtd">
<svg version="1.0" xmlns="http://www.w3.org/2000/svg"
 width="900.000000pt" height="900.000000pt" viewBox="0 0 900.000000 900.000000"
 preserveAspectRatio="xMidYMid meet">
<metadata>
Created by potrace 1.14, written by Peter Selinger 2001-2017
</metadata>
<g transform="translate(0.000000,900.000000) scale(0.100000,-0.100000)"
fill="#000000" stroke="none">
<path d="M8345 8990 c3 -5 8 -10 11 -10 2 0 4 5 4 10 0 6 -5 10 -11 10 -5 0
-7 -4 -4 -10z"/>
<path d="M8280 8956 c0 -9 5 -16 10 -16 6 0 10 4 10 9 0 6 -4 13 -10 16 -5 3
-10 -1 -10 -9z"/>
<path d="M7945 8947 c-4 -10 -5 -21 -1 -24 10 -10 18 4 13 24 -4 17 -4 17 -12
0z"/>
<path d="M8555 8950 c3 -5 8 -10 11 -10 2 0 4 5 4 10 0 6 -5 10 -11 10 -5 0
-7 -4 -4 -10z"/>
<path d="M8730 8939 c0 -5 5 -7 10 -4 6 3 10 8 10 11 0 2 -4 4 -10 4 -5 0 -10
-5 -10 -11z"/>
<path d="M8076 8895 c4 -8 8 -15 10 -15 2 0 4 7 4 15 0 8 -4 15 -10 15 -5 0
-7 -7 -4 -15z"/>
<path d="M8808 8903 c7 -3 16 -2 19 1 4 3 -2 6 -13 5 -11 0 -14 -3 -6 -6z"/>
<path d="M8280 8879 c0 -5 5 -7 10 -4 6 3 10 8 10 11 0 2 -4 4 -10 4 -5 0 -10
-5 -10 -11z"/>
<path d="M5995 7866 c10 -14 24 -26 31 -26 20 0 18 3 -17 29 l-31 23 17 -26z"/>
<path d="M5967 7810 c3 -11 9 -20 14 -20 5 0 9 9 9 20 0 11 -6 20 -14 20 -9 0
-12 -7 -9 -20z"/>
<path d="M6055 7820 c3 -5 8 -10 11 -10 2 0 4 5 4 10 0 6 -5 10 -11 10 -5 0
-7 -4 -4 -10z"/>
<path d="M2790 7694 c0 -8 5 -12 10 -9 6 3 10 10 10 16 0 5 -4 9 -10 9 -5 0
-10 -7 -10 -16z"/>
<path d="M6224 7559 c-10 -17 17 -59 39 -59 10 0 17 3 15 8 -32 66 -40 73 -54
51z"/>
<path d="M6300 7475 c0 -9 7 -18 16 -22 8 -3 13 -12 9 -21 -4 -12 -3 -13 9 -3
12 10 13 18 4 37 -12 27 -38 33 -38 9z"/>
<path d="M2650 7455 c0 -8 4 -15 9 -15 5 0 11 7 15 15 3 9 0 15 -9 15 -8 0
-15 -7 -15 -15z"/>
<path d="M6381 7404 c0 -11 3 -14 6 -6 3 7 2 16 -1 19 -3 4 -6 -2 -5 -13z"/>
<path d="M2592 7385 c0 -16 2 -22 5 -12 2 9 2 23 0 30 -3 6 -5 -1 -5 -18z"/>
<path d="M6435 7380 c3 -5 8 -10 11 -10 2 0 4 5 4 10 0 6 -5 10 -11 10 -5 0
-7 -4 -4 -10z"/>
<path d="M2524 7335 c-18 -28 -34 -33 -34 -10 0 8 -4 15 -10 15 -5 0 -10 -7
-10 -15 0 -7 -6 -18 -13 -22 -8 -4 -16 -18 -19 -31 -4 -12 -2 -20 2 -17 15 9
22 -33 12 -69 -7 -25 -7 -36 1 -39 7 -2 17 14 23 37 8 34 14 41 35 41 39 0 50
13 48 58 -1 23 2 50 6 60 11 27 -22 21 -41 -8z m-4 -65 c0 -11 -7 -20 -15 -20
-18 0 -19 12 -3 28 16 16 18 15 18 -8z"/>
<path d="M6490 7334 c0 -13 29 -74 36 -74 2 0 4 8 4 18 0 18 -39 74 -40 56z"/>
<path d="M2591 7304 c0 -11 3 -14 6 -6 3 7 2 16 -1 19 -3 4 -6 -2 -5 -13z"/>
<path d="M2392 7218 c-14 -14 -16 -28 -3 -28 5 0 11 9 14 20 6 23 5 24 -11 8z"/>
<path d="M6560 7201 c0 -18 35 -71 48 -71 19 0 14 18 -8 32 -11 7 -20 21 -20
30 0 10 -4 18 -10 18 -5 0 -10 -4 -10 -9z"/>
<path d="M2405 7160 c-10 -11 -18 -34 -17 -52 2 -40 -6 -68 -19 -68 -13 0 -11
28 3 32 6 2 8 11 4 19 -20 40 -33 58 -39 52 -11 -10 -8 -43 3 -43 6 0 10 -7
10 -16 0 -10 -5 -12 -12 -7 -31 19 -45 11 -68 -37 -13 -28 -26 -50 -30 -50 -4
0 -13 -12 -21 -27 -7 -16 -28 -50 -45 -78 -17 -27 -44 -77 -59 -110 -16 -33
-39 -73 -50 -90 -12 -16 -30 -50 -39 -74 -9 -24 -27 -57 -40 -75 -14 -17 -48
-78 -78 -136 -30 -58 -59 -114 -65 -125 -16 -28 -73 -175 -73 -188 0 -6 -15
-43 -34 -82 -19 -38 -39 -94 -45 -122 -27 -131 -34 -160 -43 -185 -6 -15 -12
-56 -13 -90 -2 -35 -13 -99 -24 -143 -11 -44 -32 -129 -46 -190 -14 -60 -32
-132 -40 -160 -15 -51 -31 -175 -27 -208 1 -10 -5 -31 -13 -47 -17 -32 -20
-106 -5 -112 5 -1 13 -32 17 -68 8 -65 8 -65 57 -91 28 -15 43 -28 35 -31 -10
-3 -5 -15 19 -42 20 -23 32 -47 32 -66 0 -16 4 -31 9 -35 21 -12 53 -123 56
-190 2 -39 10 -83 19 -100 15 -29 21 -65 11 -65 -8 0 -68 69 -85 98 -8 14 -25
35 -37 48 -13 13 -23 32 -23 42 0 13 -9 22 -25 26 -14 4 -25 11 -25 17 0 13
-96 109 -110 109 -5 0 -10 4 -10 8 0 5 -28 23 -62 41 -35 18 -69 40 -75 49 -7
8 -16 13 -20 9 -8 -9 15 -199 33 -262 7 -27 21 -93 30 -145 9 -52 18 -98 20
-102 6 -9 23 -372 18 -377 -9 -9 -22 15 -28 48 -7 51 -29 67 -23 16 7 -54 62
-252 83 -301 33 -76 118 -250 150 -306 18 -31 35 -70 39 -86 8 -38 51 -98 58
-80 4 11 7 11 18 0 12 -11 12 -14 -1 -22 -22 -13 0 -46 95 -144 97 -99 151
-136 200 -136 55 0 81 -34 88 -116 5 -54 12 -72 37 -100 16 -19 33 -47 36 -62
12 -52 173 -367 209 -409 19 -23 42 -57 50 -76 8 -19 39 -63 68 -98 64 -74
133 -212 148 -294 9 -51 14 -128 18 -322 0 -38 6 -67 15 -76 8 -8 14 -35 15
-68 0 -30 5 -85 10 -122 8 -57 7 -75 -6 -103 -9 -19 -20 -34 -23 -34 -14 0
-148 -85 -178 -114 -54 -50 -147 -204 -192 -316 -22 -57 -65 -152 -120 -270
-6 -13 -139 -16 -1071 -20 -585 -3 962 -6 3439 -8 l4502 -2 0 114 c0 75 -4
117 -11 122 -7 4 -111 8 -233 9 -198 2 -228 4 -286 24 -36 12 -138 33 -227 46
-99 15 -195 36 -250 55 -48 17 -148 46 -222 66 -73 19 -141 39 -151 44 -10 6
-32 10 -48 10 -41 0 -92 51 -136 137 -66 131 -202 337 -263 398 -21 22 -61 58
-87 80 -27 22 -65 55 -86 72 -21 18 -45 33 -54 33 -25 0 -30 27 -13 68 9 20
30 82 46 137 17 55 38 116 45 135 8 19 24 69 36 110 12 41 28 91 35 110 8 19
16 54 18 78 3 24 13 52 22 62 9 10 19 37 22 59 3 23 10 44 14 47 5 3 9 16 9
30 0 14 10 43 23 64 19 34 20 42 9 61 -10 16 -11 23 -2 29 6 4 16 27 21 51 6
24 18 52 27 62 17 19 21 80 7 129 -6 21 -3 27 14 33 14 4 22 18 26 43 4 20 13
53 22 74 8 20 12 41 9 46 -14 22 -14 91 -1 96 8 3 21 19 30 36 13 25 14 38 6
62 -16 45 -13 69 10 94 20 21 20 26 10 114 -7 51 -9 101 -6 111 4 11 -1 33 -9
51 -20 38 -20 35 3 41 14 3 17 11 14 30 -3 15 -11 32 -19 38 -14 12 -19 60 -8
72 16 15 3 258 -25 474 -23 178 -27 193 -46 193 -22 0 -34 98 -18 145 8 21 10
46 7 55 -4 8 -6 24 -5 35 4 27 -22 165 -30 165 -4 0 -10 10 -12 23 l-4 22 -2
-22 c0 -13 -6 -23 -12 -23 -9 0 -10 27 -5 96 5 60 4 99 -2 103 -6 3 -15 83
-22 176 -6 94 -16 183 -22 199 -7 16 -13 45 -14 65 -1 20 -7 60 -13 90 -6 29
-11 79 -11 110 0 45 -4 60 -21 74 -27 24 -36 14 -22 -24 9 -24 9 -31 -2 -35
-22 -9 -36 5 -29 31 3 12 1 26 -5 29 -6 4 -11 20 -11 35 0 16 -7 41 -15 57 -8
16 -12 39 -9 51 4 14 2 23 -5 23 -6 0 -11 8 -11 18 0 27 90 25 101 -3 12 -28
0 104 -12 135 -5 14 -12 43 -14 65 -16 127 -17 158 -5 181 11 19 11 34 1 71
-6 27 -14 85 -16 130 -2 46 -9 92 -15 102 -5 11 -10 33 -10 49 0 35 -25 99
-50 127 -10 11 -28 49 -41 85 -12 36 -29 72 -36 81 -8 9 -17 34 -20 55 -3 22
-10 48 -16 58 -9 19 -10 18 -27 -4 l-18 -24 -51 53 c-28 29 -51 56 -51 61 0 4
-11 15 -25 24 -23 15 -26 15 -45 -4 -24 -24 -30 -25 -30 -5 0 8 -12 17 -27 20
-43 9 -93 22 -153 41 -30 9 -73 18 -95 19 -58 4 -118 16 -132 27 -6 5 -22 6
-36 3 -14 -4 -35 -2 -46 4 -16 9 -28 8 -53 -5 -32 -17 -91 -33 -133 -37 -11
-1 -30 -12 -42 -24 -17 -17 -31 -21 -65 -18 -24 2 -52 -2 -63 -8 -11 -6 -30
-10 -42 -8 -17 2 -23 -3 -23 -18 0 -25 -22 -28 -40 -6 -9 11 -16 13 -24 5 -5
-5 -20 -10 -33 -10 -13 0 -32 -9 -43 -20 -11 -11 -26 -20 -33 -20 -7 0 -18 -5
-24 -11 -6 -6 -22 -17 -35 -23 -12 -6 -24 -22 -26 -34 -5 -30 -22 -28 -22 2 0
14 -4 27 -9 30 -15 10 -36 -25 -33 -55 2 -16 1 -38 -3 -49 -5 -17 -10 -19 -21
-9 -8 6 -14 22 -14 35 0 13 -4 24 -10 24 -5 0 -10 -22 -10 -49 0 -27 -3 -56
-6 -65 -5 -14 -8 -14 -30 1 -23 15 -24 14 -24 -11 0 -16 -5 -26 -15 -26 -11 0
-15 11 -15 36 l0 35 -26 -20 c-14 -11 -32 -17 -40 -14 -25 9 -16 -34 12 -56
28 -22 19 -33 -21 -28 -14 1 -19 -3 -17 -15 3 -21 -15 -58 -28 -58 -6 0 -10
14 -10 30 0 17 -4 30 -9 30 -11 0 -24 -48 -16 -60 3 -5 1 -19 -5 -31 -11 -19
-13 -19 -29 -5 -10 9 -20 16 -23 16 -9 0 -3 -108 6 -117 5 -4 6 0 3 10 -8 21
12 69 27 64 6 -2 12 -12 12 -23 1 -10 2 -26 3 -35 1 -12 8 -15 26 -12 20 4 25
0 31 -23 9 -40 15 -48 24 -34 9 15 30 4 30 -15 0 -20 -21 -30 -31 -14 -6 11
-9 10 -15 -5 -5 -13 0 -24 16 -36 22 -16 24 -26 27 -131 3 -134 4 -140 14
-133 17 10 37 -64 44 -157 1 -25 6 -55 10 -68 3 -12 2 -27 -3 -34 -6 -8 -6
-21 1 -37 l11 -25 4 33 c2 17 7 32 12 32 15 0 21 -36 10 -65 -8 -22 -7 -31 5
-45 8 -9 15 -30 16 -46 0 -27 1 -28 9 -6 11 26 23 28 40 6 10 -11 11 -23 4
-42 -8 -21 -6 -35 10 -64 10 -20 22 -37 25 -36 33 3 45 -21 29 -57 -10 -21 -9
-29 5 -43 14 -14 21 -14 37 -4 23 14 27 0 6 -17 -8 -7 -18 -37 -22 -68 -6 -50
-8 -54 -29 -50 -20 3 -24 -1 -27 -30 -5 -38 10 -57 19 -24 l6 22 19 -21 c15
-16 18 -29 14 -55 -9 -44 2 -88 20 -81 16 6 31 -12 36 -44 4 -28 -26 -41 -36
-15 -3 9 -2 13 4 10 6 -3 10 -1 10 4 0 6 -9 11 -20 11 -11 0 -19 -6 -17 -12 1
-7 -8 -14 -20 -16 -18 -3 -23 1 -23 18 0 12 -4 18 -10 15 -5 -3 -10 -17 -10
-31 0 -28 -28 -44 -41 -23 -7 11 -9 9 -9 -7 0 -27 -24 -48 -49 -41 -13 3 -21
-1 -24 -14 -6 -23 -47 -26 -47 -4 0 19 -16 20 -23 1 -6 -14 -85 -29 -102 -18
-15 10 -37 9 -60 -2 -35 -17 -108 -13 -123 6 -7 9 -19 15 -27 12 -8 -4 -15 -1
-15 4 0 18 -30 42 -53 42 -12 0 -28 10 -36 21 -9 16 -15 19 -21 9 -13 -20 -53
6 -41 28 11 22 0 94 -17 100 -15 5 -16 -13 -1 -40 9 -16 8 -23 -2 -29 -25 -16
-49 -9 -61 16 -6 14 -19 25 -29 25 -23 0 -30 22 -19 62 6 18 8 40 5 48 -3 9 1
24 8 35 19 24 40 10 33 -21 -4 -14 -2 -24 4 -24 5 0 10 24 10 53 0 29 5 58 11
64 8 8 7 16 -2 30 -9 15 -9 28 -1 51 8 22 8 39 -1 61 -8 23 -8 33 3 45 12 15
14 15 31 0 18 -16 19 -15 19 21 0 37 -1 37 -19 21 -17 -16 -19 -15 -33 6 -8
13 -13 29 -11 36 7 18 34 15 49 -5 15 -20 15 -20 16 63 0 57 -9 94 -23 94 -12
0 -11 -12 1 -44 10 -27 -2 -76 -18 -76 -4 0 -13 14 -20 32 -10 27 -9 35 5 50
13 14 14 21 5 30 -7 7 -12 23 -12 36 0 20 4 23 24 18 22 -5 24 -3 31 49 7 56
1 80 -16 69 -6 -4 -6 -11 1 -19 8 -10 8 -19 -2 -34 -25 -41 -48 -10 -28 38 9
22 9 34 0 51 -6 11 -12 48 -13 80 -2 50 -6 61 -28 79 -19 15 -25 27 -22 45 6
27 -15 45 -28 25 -6 -10 -9 -8 -9 9 0 12 5 22 11 22 6 0 1 13 -10 29 -12 16
-21 44 -21 61 0 27 -3 32 -20 27 -15 -4 -20 0 -20 15 0 14 5 18 16 14 13 -5
14 -1 9 23 -4 21 -2 30 10 35 21 8 35 48 23 64 -7 8 -7 12 2 12 7 0 19 -8 27
-17 10 -13 16 -15 19 -5 3 6 13 12 21 12 9 0 13 3 10 7 -7 6 16 22 61 42 12 6
22 17 22 26 0 18 -12 19 -27 4 -8 -8 -13 -3 -18 20 -7 32 -20 40 -28 19 -11
-26 -27 17 -21 53 4 27 1 38 -10 42 -10 4 -16 -1 -18 -16 -5 -34 -45 -36 -54
-2 -3 14 -4 35 -1 47 3 11 0 33 -8 48 -8 15 -11 30 -8 34 4 3 -1 6 -9 6 -19 0
-50 62 -42 84 9 22 -5 20 -26 -4 -30 -35 -57 -9 -74 71 -7 32 -36 48 -36 20 0
-10 -3 -21 -7 -24 -11 -12 -43 25 -44 52 -1 17 -5 9 -13 -24 l-12 -49 -10 34
c-8 28 -15 35 -36 35 -27 1 -47 9 -123 48 -47 25 -135 39 -152 25 -9 -7 -23
-3 -46 11 -36 22 -67 28 -67 12 0 -16 -44 -20 -66 -6 -16 10 -50 13 -130 11
-60 -2 -114 1 -121 6 -7 6 -20 5 -34 -2 -18 -10 -24 -9 -31 4 -5 9 -14 14 -19
11 -5 -4 -7 -10 -4 -15 3 -5 1 -11 -5 -15 -5 -3 -10 0 -10 8 0 18 -23 18 -84
1 -68 -19 -99 -18 -113 5 -10 16 -22 19 -55 17 -24 -2 -58 -4 -75 -4 -21 -1
-33 -7 -33 -16 0 -20 -21 -31 -30 -16 -11 17 -30 3 -30 -21 0 -14 -10 -25 -30
-32 -16 -6 -30 -14 -30 -18 0 -4 -12 -10 -26 -13 -15 -4 -41 -18 -58 -30 -17
-13 -49 -33 -71 -44 -22 -11 -62 -44 -88 -74 -58 -65 -63 -70 -107 -110 -36
-33 -80 -92 -80 -108 0 -6 -5 -10 -11 -10 -5 0 -8 4 -5 9 8 12 -3 41 -15 41
-5 0 -9 -11 -9 -24 0 -14 -4 -28 -10 -31 -5 -3 -10 -18 -10 -33 0 -46 -11 -73
-29 -70 -11 2 -16 -4 -16 -19 0 -13 -8 -31 -18 -40 -11 -11 -17 -13 -17 -5 0
7 -6 12 -12 12 -8 0 -13 -13 -13 -30 0 -16 4 -30 9 -30 5 0 2 -8 -7 -18 -10
-10 -17 -26 -17 -36 0 -9 -5 -27 -11 -39 -7 -12 -13 -58 -13 -104 -2 -80 -7
-98 -29 -98 -5 0 -12 -9 -13 -20 -2 -11 -7 -49 -12 -85 -5 -36 -7 -81 -5 -101
5 -40 -9 -58 -31 -40 -11 9 -15 0 -20 -45 -4 -37 -3 -61 5 -70 16 -19 29 -17
29 4 0 27 9 32 34 20 11 -6 28 -14 36 -18 8 -4 19 -20 25 -36 13 -40 14 -41
31 -15 9 12 22 20 30 17 7 -3 16 -1 19 4 4 6 16 10 28 10 25 0 10 -20 -19 -24
-20 -3 -34 -66 -15 -66 11 0 15 13 12 38 -2 10 2 11 17 3 25 -13 35 -52 22
-85 -6 -16 -6 -35 0 -50 6 -16 5 -29 -4 -42 -13 -16 -14 -16 -24 2 -10 16 -11
14 -12 -18 0 -20 -6 -38 -12 -41 -7 -2 -9 -8 -5 -13 5 -5 17 2 27 16 l19 25
10 -28 c6 -15 8 -34 5 -42 -7 -18 7 -20 24 -3 9 9 16 8 30 -5 10 -9 27 -17 38
-17 11 0 25 -9 32 -21 19 -29 23 -21 28 57 6 103 20 139 60 154 29 12 34 19
34 45 0 40 9 50 26 27 12 -15 13 -14 14 11 0 16 5 38 12 50 11 21 12 20 23
-18 9 -29 17 -40 32 -41 29 -2 43 -12 53 -40 6 -14 18 -24 30 -24 15 0 20 -7
20 -29 0 -31 22 -57 40 -46 5 3 10 13 10 21 0 23 28 16 32 -8 2 -19 11 -24 48
-29 83 -11 259 4 295 26 11 6 67 26 125 44 58 18 119 37 135 42 43 15 144 35
184 38 60 3 211 67 211 89 -1 16 -17 27 -40 27 -16 0 -26 6 -28 18 -3 14 4 17
50 17 63 0 128 10 128 19 0 4 -22 15 -50 25 -27 10 -50 22 -50 27 0 12 -47 11
-55 -1 -3 -6 -16 -8 -28 -5 -25 6 -60 -13 -39 -22 6 -2 11 -17 11 -31 -1 -17
-3 -21 -6 -9 -2 9 -8 17 -13 17 -4 0 -10 9 -13 20 -6 25 -27 27 -27 3 -1 -34
-25 -49 -100 -62 -41 -7 -100 -17 -130 -23 -30 -6 -68 -11 -84 -12 -19 -1 -31
-8 -37 -22 -7 -21 -55 -39 -92 -35 -10 2 -25 -3 -34 -11 -12 -10 -17 -10 -20
-1 -4 10 -9 10 -24 0 -14 -8 -24 -9 -36 -1 -23 13 -68 11 -87 -5 -13 -11 -16
-9 -22 13 -6 27 -29 35 -36 14 -3 -8 -14 -5 -35 10 -17 12 -38 22 -46 22 -20
0 -30 40 -11 47 8 3 21 -1 30 -8 19 -16 95 -12 107 4 6 9 10 9 13 1 3 -7 14
-10 24 -7 37 10 20 20 -41 27 -33 4 -70 11 -82 16 -12 4 -48 16 -79 25 -32 9
-61 21 -64 26 -3 6 -14 7 -24 4 -19 -6 -50 18 -50 38 0 7 15 34 33 61 17 27
37 56 42 65 42 67 202 183 298 215 78 26 74 34 46 -109 -21 -105 -7 -192 39
-247 11 -12 29 -34 40 -48 20 -24 23 -25 151 -24 73 0 136 5 143 11 7 6 34 14
60 17 38 6 53 14 76 44 46 58 71 165 51 220 -7 22 -7 36 1 51 16 31 28 26 47
-19 10 -22 23 -40 30 -40 7 0 15 -16 19 -35 3 -19 11 -35 18 -35 6 0 24 -16
39 -35 15 -19 37 -35 47 -35 15 0 20 -7 20 -29 0 -32 33 -51 85 -48 29 2 30 4
33 55 l3 52 60 0 c33 0 59 4 59 10 0 6 5 10 10 10 6 0 10 -8 10 -18 0 -10 5
-23 12 -30 15 -15 21 -72 10 -97 -19 -42 -31 -88 -26 -96 3 -5 -2 -9 -10 -9
-33 0 -62 -112 -32 -123 18 -7 26 1 26 29 0 20 17 34 41 34 5 0 10 -10 10 -22
1 -17 2 -19 6 -5 3 10 14 17 29 17 14 0 27 7 31 15 8 23 -5 31 -27 17 -26 -16
-30 -15 -30 4 0 9 9 18 20 21 11 3 23 16 26 29 6 23 34 35 34 14 0 -5 7 -10
15 -10 18 0 18 5 5 29 -7 14 -4 24 10 41 11 13 23 20 27 17 8 -8 6 -145 -3
-158 -3 -6 -12 -8 -19 -5 -16 6 -35 -36 -35 -80 0 -30 4 -35 29 -40 18 -4 31
-14 34 -26 3 -11 10 -17 15 -14 6 3 8 15 5 27 -7 25 15 43 34 27 16 -13 17
-35 1 -40 -10 -4 -10 -13 -2 -40 12 -38 3 -68 -21 -68 -9 0 -15 15 -18 43 l-4
42 -1 -43 c-1 -30 2 -44 13 -48 19 -8 20 -24 1 -24 -8 0 -17 -12 -20 -26 -6
-22 -9 -24 -23 -12 -15 11 -16 11 -10 -4 4 -12 1 -18 -9 -18 -21 0 -47 -27
-34 -35 5 -3 10 -15 10 -27 0 -17 -4 -19 -25 -14 -22 6 -25 3 -25 -22 0 -21
-7 -32 -25 -40 -14 -6 -25 -18 -25 -26 0 -8 -14 -30 -30 -48 -19 -21 -29 -40
-26 -52 5 -20 -17 -61 -45 -86 -9 -8 -25 -37 -34 -65 -9 -27 -22 -59 -29 -70
-13 -20 -18 -36 -37 -125 -13 -62 -13 -163 0 -188 6 -11 11 -35 11 -52 0 -17
7 -45 16 -63 19 -38 121 -137 141 -137 20 0 27 -28 13 -46 -11 -12 -11 -17 0
-27 10 -9 14 -9 17 1 3 6 9 10 14 6 5 -3 9 3 10 13 0 14 2 13 10 -5 6 -15 5
-30 -1 -40 -5 -10 -10 -12 -10 -4 0 14 -30 17 -30 3 0 -23 14 -41 31 -41 23 0
25 -23 4 -44 -8 -8 -15 -19 -15 -24 0 -12 -29 -24 -41 -16 -5 3 -9 -1 -10 -8
0 -7 -4 -4 -9 7 -8 19 -9 19 -9 1 -1 -23 -52 -105 -66 -106 -6 0 -16 -9 -23
-20 -7 -11 -19 -20 -28 -20 -25 0 -74 -30 -74 -45 0 -9 -10 -15 -25 -15 -28 0
-75 -20 -75 -32 0 -4 -7 -8 -15 -8 -8 0 -19 -9 -25 -20 -9 -16 -8 -20 5 -20 8
0 15 -4 15 -10 0 -5 -8 -10 -19 -10 -11 0 -23 -11 -30 -29 -7 -15 -26 -38 -42
-50 -16 -12 -27 -26 -24 -31 6 -10 -60 -50 -83 -50 -10 0 -23 -9 -30 -20 -7
-11 -19 -20 -26 -20 -8 0 -17 -9 -21 -20 -3 -11 -17 -28 -31 -39 -37 -29 -57
-87 -60 -176 -2 -44 -6 -95 -10 -112 -4 -22 -2 -33 5 -33 6 0 11 -10 11 -23 0
-12 7 -33 16 -45 9 -13 13 -29 10 -37 -3 -8 -1 -17 4 -20 6 -4 10 -24 10 -46
0 -54 20 -129 34 -129 6 0 17 -10 25 -21 10 -18 11 -23 0 -30 -10 -6 -8 -13
10 -28 17 -15 22 -27 17 -45 -4 -18 -1 -25 13 -29 12 -3 21 -18 26 -43 4 -22
11 -45 17 -51 15 -18 -14 -27 -67 -20 -31 5 -46 2 -55 -8 -18 -22 -29 -18 -36
13 -4 15 -9 30 -11 35 -6 10 -63 -24 -63 -38 0 -14 -38 -17 -46 -4 -9 16 17
41 31 29 6 -5 15 -7 18 -3 14 13 6 23 -18 23 -13 0 -29 8 -34 17 -9 17 -11 16
-26 -5 -19 -27 -35 -21 -35 14 0 21 -3 24 -25 18 -21 -5 -25 -3 -25 17 0 13
-8 33 -16 44 l-15 20 -12 -20 c-11 -18 -12 -17 -17 15 -4 29 -9 35 -29 35 -13
0 -27 7 -31 15 -4 8 -12 25 -18 37 -7 13 -12 37 -13 55 0 18 -3 27 -6 21 -2
-7 -13 -13 -24 -13 -24 0 -45 48 -29 64 18 18 10 27 -22 24 -30 -3 -33 -1 -30
24 3 32 -11 43 -28 23 -22 -27 -40 -18 -40 20 0 24 -5 35 -15 35 -8 0 -15 -7
-15 -16 0 -10 -7 -14 -22 -12 -19 2 -23 8 -20 36 1 22 -2 32 -12 32 -14 0 -26
-41 -26 -87 0 -15 -5 -23 -12 -20 -7 2 -13 18 -13 35 0 18 -3 32 -8 32 -4 0
-5 5 -2 11 4 6 0 16 -8 22 -9 7 -19 29 -22 50 -7 35 -6 37 18 37 20 0 27 6 32
30 8 35 -11 68 -29 50 -24 -24 -31 -8 -32 70 0 47 -6 85 -13 94 -9 11 -10 20
-1 35 11 21 40 29 40 11 0 -5 5 -10 11 -10 7 0 9 12 5 34 -4 22 -2 36 5 38 7
2 6 8 -5 17 -11 9 -16 10 -16 2 0 -6 -11 -16 -25 -21 -17 -7 -25 -17 -25 -34
0 -14 -5 -28 -11 -31 -6 -4 -7 -19 -4 -36 5 -22 3 -29 -9 -29 -9 0 -16 7 -16
15 0 8 -4 23 -9 33 -5 9 -12 25 -15 35 -9 28 -26 19 -26 -14 0 -20 -4 -29 -12
-26 -7 2 -12 9 -11 15 1 5 -4 16 -12 22 -12 10 -16 9 -21 -4 -3 -9 -4 -26 -1
-37 8 -29 -2 -49 -24 -49 -13 0 -19 7 -20 23 -1 18 -2 17 -9 -7 -5 -16 -7 -33
-4 -37 2 -4 0 -10 -5 -14 -6 -3 -17 8 -26 25 -8 16 -19 30 -24 30 -14 0 -24
-32 -22 -64 2 -16 -2 -31 -7 -35 -6 -4 -5 -23 3 -53 13 -53 -2 -98 -34 -98
-27 0 -45 -42 -34 -77 l10 -28 18 38 c26 52 49 50 40 -3 -4 -22 -3 -40 2 -40
5 0 9 -12 10 -27 1 -54 1 -55 24 -43 15 9 24 8 36 -2 13 -10 17 -10 20 -1 3 9
10 10 23 3 20 -11 68 -8 89 4 7 5 19 22 27 40 7 17 13 24 14 14 0 -9 6 -18 13
-21 9 -3 9 -9 -2 -30 -12 -23 -11 -29 7 -59 21 -33 21 -35 3 -62 -18 -27 -19
-46 -6 -105 8 -37 17 -39 30 -9 6 13 19 23 30 23 22 0 39 20 31 34 -3 5 1 12
10 15 24 9 25 8 18 -18 -3 -13 0 -35 7 -48 7 -12 14 -29 15 -37 4 -23 -20 -51
-43 -51 -12 0 -25 -5 -28 -10 -12 -19 -22 -10 -17 15 3 21 0 25 -18 25 -20 0
-36 -25 -30 -46 4 -16 -26 -22 -41 -8 -15 14 -18 14 -27 -2 -5 -9 -14 -14 -21
-10 -14 9 -15 43 -1 51 16 10 12 23 -7 27 -10 2 -23 -3 -29 -11 -6 -8 -16 -11
-23 -7 -16 10 4 36 28 36 14 1 15 2 0 13 -8 7 -24 24 -34 40 -13 20 -23 26
-38 21 -14 -4 -25 1 -38 17 -14 18 -19 20 -19 8 0 -9 -7 -22 -15 -29 -16 -13
-18 -8 -16 35 1 25 -24 59 -38 50 -6 -3 -11 -22 -11 -41 0 -30 -3 -34 -25 -34
l-26 0 4 95 c4 72 2 95 -8 95 -7 0 -15 -9 -18 -20 -7 -28 -26 -25 -37 6 -7 17
-7 39 0 65 6 22 8 49 5 59 -9 28 4 25 30 -6 15 -18 29 -25 40 -21 10 4 13 12
8 19 -4 7 -8 18 -8 23 -2 22 -18 65 -24 65 -3 0 -12 -9 -19 -20 -16 -26 -35
-26 -27 0 4 12 1 27 -5 35 -15 18 2 27 40 23 22 -3 25 2 35 52 11 57 37 77 43
33 2 -14 8 -20 18 -16 7 3 11 9 8 14 -3 5 2 19 10 30 11 16 12 26 4 39 -8 12
-8 26 1 50 10 30 9 35 -10 48 -16 11 -20 21 -15 43 3 16 1 29 -4 29 -10 0 -13
-27 -10 -91 1 -21 -3 -40 -9 -43 -14 -9 -33 31 -26 54 9 29 -11 33 -32 6 -17
-21 -21 -22 -29 -8 -6 9 -15 12 -22 8 -16 -10 -14 -138 2 -133 6 2 11 14 11
27 0 13 6 25 13 28 6 2 12 -2 12 -10 0 -7 7 -25 14 -40 18 -34 7 -42 -41 -33
-27 5 -34 3 -30 -7 2 -7 11 -12 19 -12 8 1 15 -6 14 -15 -2 -27 -42 -71 -64
-71 -16 0 -24 -10 -31 -37 -6 -21 -11 -46 -11 -55 0 -9 -5 -20 -11 -24 -15 -9
-31 17 -23 36 16 37 13 114 -3 133 -14 15 -15 20 -4 27 8 4 11 15 8 24 -4 9
-2 16 3 16 5 0 8 9 7 19 -2 25 -26 15 -37 -15 -7 -17 -14 -21 -31 -17 -19 5
-19 7 -5 15 13 7 15 18 10 46 -4 20 -13 46 -20 57 -16 22 -17 15 -5 -37 7 -29
6 -38 -4 -38 -9 0 -12 -22 -11 -82 1 -56 -3 -83 -11 -85 -7 -3 -15 7 -19 21
-4 19 -13 26 -29 26 -31 0 -38 13 -23 45 8 18 14 22 19 13 13 -20 31 5 27 36
-4 33 -21 35 -30 4 -3 -13 -6 10 -5 49 1 40 5 73 10 73 4 0 10 0 15 1 4 0 10
-10 14 -23 4 -14 6 -17 7 -6 1 9 15 21 36 28 41 13 49 33 36 91 -5 24 -8 47
-5 51 3 4 -3 8 -12 8 -17 0 -16 1 1 13 10 8 15 19 11 25 -7 12 3 42 14 42 5 0
10 -15 12 -32 3 -28 7 -33 30 -33 32 -1 43 -9 33 -25 -5 -8 -11 -8 -21 1 -23
19 -32 0 -35 -76 -2 -38 -7 -80 -12 -92 -7 -16 -6 -27 3 -38 21 -25 34 -1 35
63 1 68 8 82 41 82 13 0 24 1 25 3 0 1 3 82 5 180 4 153 3 177 -10 177 -15 0
-31 -52 -24 -80 2 -7 -4 -15 -13 -17 -13 -3 -18 7 -23 47 l-7 50 -39 0 c-22 0
-40 5 -40 10 0 6 4 10 10 10 5 0 7 7 4 15 -14 35 -24 -2 -24 -86 0 -86 -1 -89
-22 -89 -24 0 -54 -45 -37 -56 12 -7 11 -64 -1 -64 -5 0 -10 12 -11 28 -1 15
-3 48 -5 75 -3 37 -1 47 11 47 8 0 15 -5 15 -12 0 -27 18 9 25 48 8 49 -6 65
-29 32 -15 -21 -16 -21 -21 -2 -4 10 -12 30 -18 44 -5 14 -9 32 -8 41 1 12 -7
15 -41 13 -37 -2 -43 -5 -43 -25 0 -12 -5 -24 -12 -26 -15 -5 -28 57 -18 88
l7 22 12 -22 c14 -25 26 -18 26 16 0 20 -4 23 -20 18 -15 -5 -20 -2 -20 10 0
13 5 16 23 10 12 -3 28 -7 35 -7 7 -1 22 -17 34 -36 24 -39 33 -29 23 25 -5
30 -10 34 -29 31 -28 -6 -50 21 -31 39 7 7 17 8 26 2 8 -5 22 -9 32 -9 14 0
16 4 7 19 -7 13 -7 22 0 26 16 10 11 25 -9 25 -10 0 -26 -10 -34 -22 l-16 -23
0 23 c-1 12 -6 22 -11 22 -7 0 -7 6 0 19 13 26 13 68 -1 77 -6 3 -8 17 -5 30
7 25 -3 31 -20 14 -13 -13 -29 4 -36 35 -9 36 -21 -11 -14 -50 5 -27 12 -35
29 -35 12 0 29 -5 37 -10 13 -8 12 -13 -8 -32 l-22 -22 -16 23 c-19 26 -38 15
-39 -21 0 -12 -6 -23 -13 -26 -10 -3 -12 4 -7 31 4 20 2 44 -5 57 -14 27 -5
70 15 70 14 0 14 3 1 23 -8 12 -17 42 -21 67 -4 25 -14 53 -23 63 -8 9 -11 17
-7 17 5 0 1 6 -10 13 -15 12 -18 30 -19 128 -1 100 -3 114 -19 117 -22 4 -24
60 -2 68 8 4 15 12 15 20 0 7 -6 11 -14 8 -18 -7 -27 19 -33 94 -3 52 -1 62
12 62 9 0 20 -10 25 -22 10 -25 13 -17 10 24 -2 39 19 46 47 14 28 -32 29 -46
6 -47 -12 0 -13 -2 -5 -6 7 -3 19 0 26 6 14 12 26 5 26 -16 0 -7 -10 -13 -21
-13 -17 0 -20 -4 -15 -22 3 -13 6 -29 6 -37 0 -8 6 -11 15 -7 13 5 15 -2 9
-42 -5 -37 -2 -51 10 -61 12 -10 14 -17 5 -27 -21 -26 -29 -14 -29 40 0 34 -5
58 -14 66 -8 6 -12 18 -9 26 3 9 -1 14 -12 14 -14 0 -16 -5 -10 -22 5 -13 9
-53 10 -89 3 -72 10 -93 30 -85 7 2 18 -7 26 -20 11 -21 11 -27 0 -33 -10 -7
-8 -17 8 -49 22 -43 27 -72 12 -72 -4 0 -8 -33 -7 -72 1 -73 1 -73 30 -76 29
-4 29 -4 13 22 -20 30 -22 57 -5 74 18 18 26 15 30 -10 2 -12 14 -28 27 -34
l24 -12 -24 -5 c-24 -4 -24 -4 -1 -6 29 -1 37 -23 19 -53 -14 -21 -13 -28 2
-66 15 -38 19 -42 31 -27 10 12 10 21 1 41 -15 34 -14 64 4 70 13 5 13 9 0 34
-8 16 -12 36 -8 46 5 13 2 15 -13 10 -24 -7 -52 8 -34 19 6 4 22 4 35 1 13 -3
27 -2 30 4 3 5 1 10 -4 10 -17 0 -13 50 4 56 12 5 13 10 1 32 -8 17 -12 53
-10 97 4 86 4 95 -1 170 -3 33 -2 71 1 85 5 22 7 23 15 7 9 -14 39 -25 39 -13
0 13 -28 55 -33 49 -4 -3 -13 0 -22 7 -12 10 -14 24 -9 63 6 40 4 49 -7 45 -7
-2 -14 -15 -14 -29 0 -41 -29 -29 -31 14 -2 27 1 37 12 37 27 0 44 27 44 72 1
157 0 170 -16 164 -31 -12 -44 5 -44 56 0 35 -4 48 -12 45 -7 -2 -13 -12 -14
-23 -3 -48 -5 -54 -21 -53 -12 0 -13 2 -5 6 10 4 9 9 -4 25 -14 15 -16 25 -8
46 12 33 -4 91 -24 84 -15 -5 -42 16 -42 32 0 6 4 18 10 26 7 12 12 12 29 -4
25 -22 23 -29 22 104 -1 58 -1 139 0 180 2 41 3 98 3 125 1 28 5 56 9 62 4 7
3 21 -3 32 -7 14 -7 28 1 48 11 28 11 28 20 6 13 -35 44 -30 43 7 -1 38 -9 46
-28 31 -22 -18 -36 -5 -36 35 0 38 9 43 28 14 20 -32 42 -25 41 13 -3 134 8
196 32 181 5 -3 25 9 44 28 35 33 43 48 25 48 -5 0 -10 -7 -10 -15 0 -8 -5
-15 -11 -15 -8 0 -10 14 -6 44 4 24 2 57 -3 74 -9 35 -3 72 13 72 6 0 7 -3 4
-6 -3 -4 -2 -15 3 -25 7 -12 7 -20 0 -24 -17 -10 -11 -37 6 -33 26 5 37 32 30
71 -5 27 -12 37 -26 37 -10 0 -21 4 -24 9 -8 12 17 61 30 61 11 0 24 22 24 40
0 4 -7 7 -16 6 -9 0 -19 5 -22 13 -3 9 1 11 17 6 19 -6 21 -3 16 17 -3 13 2
32 10 42 15 20 15 20 31 0 15 -18 15 -17 10 13 -3 21 0 35 9 43 8 7 15 19 15
27 0 8 6 13 13 10 7 -3 13 3 13 13 0 14 -4 16 -18 9 -23 -12 -32 5 -16 31 15
24 26 26 35 4 10 -26 24 6 17 39 -3 16 -1 27 5 27 6 0 11 -4 11 -9 0 -5 9 -11
20 -14 11 -3 20 -9 19 -14 -1 -4 -1 -27 0 -51 1 -47 21 -50 21 -4 0 37 15 60
24 37 7 -20 26 -10 26 15 0 12 -10 21 -30 25 -35 8 -48 24 -29 36 8 4 14 15
14 23 0 29 20 21 25 -9 3 -18 12 -31 23 -33 21 -4 22 16 1 39 -12 13 -13 22
-5 38 6 11 7 22 3 25 -5 3 -5 31 -1 63 3 32 5 59 4 61 -1 1 -10 -7 -20 -18z
m-85 -136 c0 -8 -4 -12 -10 -9 -5 3 -10 10 -10 16 0 5 5 9 10 9 6 0 10 -7 10
-16z m-40 -58 c0 -8 -7 -16 -15 -20 -10 -4 -15 1 -15 14 0 11 7 20 15 20 8 0
15 -6 15 -14z m-177 -453 c-7 -2 -19 -2 -25 0 -7 3 -2 5 12 5 14 0 19 -2 13
-5z m1089 -73 c4 0 8 5 8 11 0 7 12 9 34 5 23 -4 37 -2 45 8 10 12 17 11 53
-1 36 -12 43 -12 56 1 14 14 18 13 38 -9 13 -15 30 -23 42 -20 12 2 26 -3 33
-11 6 -8 18 -14 25 -14 8 0 22 -4 32 -9 9 -5 25 -12 35 -15 25 -8 17 -40 -11
-44 -13 -2 -28 -12 -35 -23 -6 -10 -23 -19 -37 -19 -14 -1 -43 -8 -65 -16 -37
-14 -167 -51 -260 -75 -22 -5 -65 -19 -95 -30 -36 -14 -66 -18 -88 -14 -30 6
-33 4 -28 -13 4 -12 0 -24 -9 -32 -13 -11 -18 -10 -31 8 -11 16 -22 20 -40 16
-16 -4 -26 -1 -30 10 -7 18 14 42 42 48 29 5 33 68 5 75 -33 9 -23 29 11 24 4
0 12 8 18 19 8 15 17 19 34 14 27 -6 40 7 45 46 0 6 9 10 19 10 19 0 54 35 45
44 -4 3 6 6 21 6 17 0 25 -4 20 -11 -4 -8 0 -8 15 0 13 7 21 22 22 39 l1 27
11 -27 c6 -16 14 -28 19 -28z m-1110 18 c5 -30 -1 -58 -13 -58 -5 0 -9 18 -9
40 0 43 15 55 22 18z m2498 -77 c0 -6 -4 -13 -10 -16 -5 -3 -10 1 -10 9 0 9 5
16 10 16 6 0 10 -4 10 -9z m-915 -11 c-3 -5 -10 -10 -16 -10 -5 0 -9 5 -9 10
0 6 7 10 16 10 8 0 12 -4 9 -10z m-1585 -46 c0 -14 -4 -23 -10 -19 -5 3 -10
15 -10 26 0 10 5 19 10 19 6 0 10 -12 10 -26z m4230 -9 c10 -27 50 -35 50 -10
0 12 4 13 26 3 22 -11 28 -10 40 7 14 19 18 15 15 -17 -1 -10 4 -18 13 -18 8
0 19 8 25 18 9 16 11 16 26 1 13 -13 15 -21 6 -36 -9 -17 -18 -20 -61 -17 -28
3 -60 -1 -70 -6 -13 -7 -20 -7 -20 -1 0 16 -38 23 -59 12 -15 -8 -23 -7 -35 5
-20 19 -20 28 -1 44 8 7 15 19 15 26 0 23 20 16 30 -11z m-82 -30 c0 -30 -5
-45 -13 -45 -19 0 -30 57 -15 75 21 25 29 17 28 -30z m-1578 20 c0 -8 -4 -15
-9 -15 -13 0 -22 16 -14 24 11 11 23 6 23 -9z m480 5 c0 -5 -4 -10 -10 -10 -5
0 -10 5 -10 10 0 6 5 10 10 10 6 0 10 -4 10 -10z m1040 0 c0 -5 -4 -10 -10
-10 -5 0 -10 5 -10 10 0 6 5 10 10 10 6 0 10 -4 10 -10z m-4157 -46 c-4 -10
-9 -12 -15 -6 -12 12 -1 35 12 27 5 -3 6 -13 3 -21z m1 -97 c-13 -34 -40 -11
-29 24 6 18 9 19 21 7 8 -8 12 -22 8 -31z m759 -17 c-7 -25 -33 -14 -33 14 0
13 3 26 7 30 11 11 31 -23 26 -44z m75 -7 c12 -12 13 -18 4 -21 -6 -2 -12 -10
-12 -19 0 -8 -5 -12 -12 -9 -7 3 -21 9 -30 12 -16 6 -16 7 0 30 20 28 28 29
50 7z m-83 -83 c-5 -8 -11 -8 -17 -2 -6 6 -7 16 -3 22 5 8 11 8 17 2 6 -6 7
-16 3 -22z m752 -73 c10 -7 9 -15 -3 -38 -16 -32 -23 -35 -46 -16 -14 10 -14
16 -2 45 14 32 20 33 51 9z m2714 3 c22 -12 25 -35 5 -47 -16 -10 -28 -79 -27
-156 1 -43 6 -66 21 -84 44 -56 7 -90 -77 -72 -27 5 -59 11 -73 13 -14 1 -34
7 -45 13 -11 6 -57 14 -103 17 -69 6 -83 5 -88 -8 -4 -9 5 -25 23 -40 27 -24
27 -25 6 -26 -12 0 -25 5 -28 11 -4 6 -14 8 -22 5 -8 -3 -23 -1 -34 4 -14 8
-25 6 -43 -6 -24 -15 -25 -15 -32 10 -7 29 -14 32 -32 14 -23 -23 -12 -36 44
-54 30 -9 71 -30 91 -46 20 -15 39 -28 44 -28 4 0 10 -9 14 -19 3 -11 21 -26
39 -35 19 -9 36 -23 40 -31 3 -8 16 -15 29 -15 14 0 30 -7 37 -15 7 -8 22 -15
34 -15 11 0 30 -7 40 -15 11 -8 41 -18 68 -21 27 -4 51 -11 54 -15 3 -5 16 -9
30 -9 14 0 32 -7 40 -15 9 -8 26 -15 39 -15 13 0 27 -4 30 -10 3 -5 17 -10 30
-10 35 0 55 -10 56 -29 0 -10 2 -11 6 -3 8 20 24 14 55 -20 27 -31 29 -31 44
-12 8 10 17 15 20 9 12 -28 24 -38 45 -39 18 -1 25 -8 27 -28 2 -16 5 -28 7
-28 16 0 35 15 35 27 0 10 7 6 21 -11 21 -26 21 -28 4 -44 -13 -13 -19 -14
-22 -4 -3 6 -11 12 -19 12 -8 0 -11 -6 -8 -15 4 -8 15 -15 25 -15 10 0 19 -6
19 -14 0 -7 7 -19 15 -26 16 -13 82 -20 100 -11 21 11 35 9 35 -7 0 -10 5 -24
10 -32 8 -13 12 -13 32 -1 16 10 23 10 26 2 5 -14 32 -15 32 -1 0 6 -7 10 -15
10 -20 0 -19 5 8 34 l24 25 22 -20 c11 -11 25 -18 29 -15 17 10 34 -13 36 -50
1 -22 5 -45 10 -52 5 -8 4 -18 -3 -25 -15 -15 -14 -27 4 -27 9 0 16 10 16 28
2 27 2 27 6 2 3 -14 8 -29 12 -35 4 -5 6 -23 5 -40 -1 -16 3 -49 8 -73 8 -31
7 -46 -2 -57 -7 -8 -9 -26 -5 -44 3 -17 2 -38 -3 -47 -11 -19 7 -64 26 -64 6
0 12 -9 12 -20 0 -14 -6 -20 -17 -18 -10 2 -18 -3 -17 -9 1 -7 2 -24 3 -38 1
-20 6 -25 26 -25 19 0 25 -5 26 -22 0 -13 3 -43 6 -68 2 -25 5 -49 5 -55 -1
-33 -13 -139 -16 -142 -2 -2 -17 10 -34 27 -17 16 -35 30 -41 30 -7 0 -14 14
-17 30 -10 49 -33 37 -36 -20 -3 -57 -21 -72 -26 -22 -3 28 -7 32 -31 32 -24
0 -29 5 -33 30 -4 24 -1 30 13 30 9 0 20 -6 22 -12 3 -7 6 -1 6 15 1 27 -12
36 -24 17 -4 -6 -13 -7 -24 -1 -15 8 -21 3 -39 -32 l-22 -42 0 52 c0 45 -12
74 -25 61 -8 -7 -8 -63 -1 -84 5 -17 2 -23 -14 -27 -11 -3 -20 -2 -20 2 0 4
-6 16 -14 26 -21 29 -47 4 -40 -38 4 -26 3 -29 -6 -14 -18 29 -47 21 -55 -15
-4 -18 -7 -37 -6 -42 1 -5 -10 -1 -24 8 -35 23 -43 14 -40 -44 3 -58 -7 -71
-30 -36 -9 14 -23 22 -30 20 -16 -6 -35 25 -27 45 2 7 -1 17 -9 21 -17 11 -42
-36 -33 -63 3 -11 8 -84 9 -161 2 -78 6 -156 10 -174 6 -29 11 -33 31 -28 24
6 40 -7 29 -24 -5 -8 -11 -7 -21 1 -20 16 -28 6 -30 -39 0 -20 -4 -44 -7 -52
-3 -8 -7 -22 -10 -30 -4 -12 -6 -11 -13 5 -8 21 -42 49 -59 50 -14 0 -65 35
-95 65 -33 32 -75 54 -89 46 -6 -4 -11 0 -11 9 0 29 -28 71 -55 83 -36 17 -45
15 -45 -9 0 -11 -5 -29 -10 -40 -10 -18 -13 -18 -40 -4 -22 12 -33 27 -41 60
-7 27 -18 47 -29 50 -10 3 -25 17 -34 30 -9 14 -23 25 -31 25 -11 0 -15 13
-15 50 0 53 -15 71 -72 85 -15 4 -32 13 -39 21 -13 16 -33 19 -24 4 10 -16
-19 -22 -51 -9 l-29 11 23 9 c20 7 23 14 17 38 -5 24 -2 30 23 40 16 7 36 27
46 47 10 21 21 32 28 28 7 -5 9 1 6 20 -4 18 0 31 11 39 16 12 21 43 9 63 -11
16 27 108 46 112 12 3 13 7 4 22 -9 14 -9 25 0 44 9 21 9 24 -3 19 -8 -3 -15
-15 -16 -27 0 -21 0 -21 -12 -1 -18 30 -90 94 -99 89 -4 -3 -12 6 -18 20 -6
16 -17 26 -30 26 -12 0 -20 7 -21 18 -1 30 -9 64 -19 81 -8 13 -9 11 -10 -11
0 -30 -15 -45 -24 -23 -3 8 -1 17 3 20 12 7 2 43 -14 49 -18 7 -17 76 1 76 8
0 14 4 14 9 0 4 16 3 35 -3 22 -7 35 -18 37 -31 2 -16 9 -19 34 -17 29 3 32 0
38 -33 8 -42 23 -45 37 -7 7 19 7 31 0 42 -6 8 -15 25 -20 36 -5 12 -17 24
-25 27 -9 4 -16 16 -16 27 0 11 -4 20 -9 20 -5 0 -7 9 -4 19 5 20 -21 68 -48
88 -9 7 -20 27 -24 45 -5 23 -9 28 -12 15 -6 -25 -37 -17 -41 11 -3 18 1 22
22 22 19 0 26 5 26 20 0 13 -7 20 -18 20 -18 0 -60 37 -61 53 -1 4 -1 22 -2
40 l-1 32 -14 -32 c-16 -38 -29 -41 -44 -14 -7 14 -7 27 1 44 9 20 8 30 -6 51
-9 14 -15 32 -12 39 4 10 -2 13 -19 9 -21 -4 -24 -1 -24 29 0 64 -12 110 -26
105 -8 -3 -14 0 -14 8 0 7 -11 22 -25 34 -42 36 -35 44 65 73 25 7 53 19 63
28 10 8 32 14 48 13 19 -2 32 3 35 13 4 8 14 15 23 15 10 0 27 9 39 20 12 11
28 20 36 20 8 0 39 24 68 54 57 59 151 111 232 131 64 16 142 18 167 5z
m-4291 -80 c0 -5 -4 -10 -10 -10 -5 0 -10 5 -10 10 0 6 5 10 10 10 6 0 10 -4
10 -10z m-69 -103 c-8 -8 -11 -7 -11 4 0 20 13 34 18 19 3 -7 -1 -17 -7 -23z
m2689 -62 c-10 -19 -16 -22 -27 -14 -17 14 -17 56 0 62 6 3 18 -1 26 -9 13
-11 13 -17 1 -39z m866 -53 c-4 -3 -12 0 -18 6 -9 9 -8 18 2 39 l14 28 4 -33
c2 -19 1 -37 -2 -40z m-924 6 c-10 -10 -15 -10 -21 1 -5 8 -7 21 -4 28 5 12 8
12 21 -1 13 -13 14 -18 4 -28z m52 -13 c7 -18 -2 -45 -15 -45 -13 0 -22 27
-15 45 3 8 10 15 15 15 5 0 11 -7 15 -15z m746 -20 c0 -13 -28 -41 -34 -34 -2
2 -2 16 1 31 5 27 33 30 33 3z m1401 -23 c-9 -17 -71 -27 -71 -12 0 5 12 21
28 35 25 23 28 24 39 9 8 -10 9 -23 4 -32z m306 11 c-3 -10 -5 -4 -5 12 0 17
2 24 5 18 2 -7 2 -21 0 -30z m-5071 -58 c-3 -9 -10 -13 -16 -10 -12 7 -13 45
-3 72 6 15 9 13 16 -14 5 -18 7 -39 3 -48z m366 20 c0 -5 -5 -11 -11 -13 -6
-2 -11 4 -11 13 0 9 5 15 11 13 6 -2 11 -8 11 -13z m3058 0 c6 -8 10 -22 8
-31 -4 -22 -28 -31 -28 -10 0 8 -7 19 -16 24 -18 10 -11 32 10 32 8 0 19 -7
26 -15z m867 -38 c16 -16 16 -18 -2 -31 -11 -8 -33 -13 -50 -12 -66 7 -131 19
-149 28 -17 9 -17 11 5 22 37 19 175 15 196 -7z m-4341 -2 c4 -8 3 -23 0 -32
-6 -15 -8 -15 -23 -1 -16 17 -12 48 7 48 6 0 13 -7 16 -15z m4872 -24 c4 -27
-12 -21 -29 10 -9 18 -8 20 8 17 10 -2 19 -14 21 -27z m-361 4 c18 -4 30 -12
27 -17 -4 -6 0 -14 7 -19 12 -8 12 -11 -1 -19 -23 -15 -38 -12 -50 10 -6 12
-21 20 -35 20 -13 0 -28 7 -33 16 -6 11 -17 15 -31 11 -11 -3 -24 -1 -27 5 -7
10 82 6 143 -7z m-4459 -24 c2 -28 -13 -50 -25 -38 -7 7 7 67 16 67 4 0 8 -13
9 -29z m3422 -5 c0 -14 -4 -27 -9 -30 -12 -8 -22 20 -15 39 9 23 24 18 24 -9z
m1143 -3 c3 -5 -1 -14 -9 -21 -12 -11 -14 -9 -14 8 0 20 14 27 23 13z m-4609
-70 c-10 -7 -21 -13 -25 -13 -13 0 -16 25 -7 50 l9 25 20 -25 c20 -23 20 -25
3 -37z m4918 -4 c7 -38 26 -114 34 -141 4 -13 0 -18 -14 -18 -14 0 -22 9 -26
33 -13 65 -14 72 -15 80 -1 4 -10 7 -21 7 -11 0 -20 5 -20 10 0 6 4 9 9 8 5
-2 9 0 10 5 1 4 -2 7 -5 6 -14 -2 -22 25 -11 42 17 27 51 9 59 -32z m-1382 16
c0 -8 -7 -15 -15 -15 -8 0 -15 7 -15 15 0 8 7 15 15 15 8 0 15 -7 15 -15z
m-3606 -55 c-6 -6 -15 -6 -24 0 -13 9 -13 11 0 20 18 11 39 -5 24 -20z m1282
-5 c-5 -15 -8 -15 -21 -1 -17 17 -20 30 -5 21 6 -3 10 -1 10 6 0 10 3 10 11 2
7 -7 9 -19 5 -28z m1504 -5 c0 -12 -3 -12 -16 2 -9 9 -13 21 -9 28 9 14 25 -5
25 -30z m-2717 -43 c-3 -4 -2 -15 1 -24 5 -12 9 -13 20 -4 14 12 46 5 46 -9 0
-15 -16 -19 -51 -14 -37 6 -73 51 -64 79 16 51 16 51 35 15 10 -19 16 -39 13
-43z m2597 63 c0 -5 -2 -10 -4 -10 -3 0 -8 5 -11 10 -3 6 -1 10 4 10 6 0 11
-4 11 -10z m997 -12 c-3 -8 -6 -5 -6 6 -1 11 2 17 5 13 3 -3 4 -12 1 -19z
m-3663 -107 c-5 -23 -6 -23 -19 -4 -11 15 -11 26 -2 56 l12 38 7 -33 c4 -18 5
-44 2 -57z m3716 63 c0 -8 -4 -14 -10 -14 -5 0 -10 9 -10 21 0 11 5 17 10 14
6 -3 10 -13 10 -21z m-115 6 c3 -5 1 -10 -4 -10 -6 0 -11 5 -11 10 0 6 2 10 4
10 3 0 8 -4 11 -10z m-802 -39 c2 -11 0 -24 -6 -30 -13 -13 -41 14 -33 34 8
21 33 18 39 -4z m-2738 -59 c0 -18 -20 -15 -23 4 -3 10 1 15 10 12 7 -3 13
-10 13 -16z m-55 -48 c0 -16 26 -19 36 -3 14 23 23 -9 23 -86 0 -44 -1 -98 -3
-120 -2 -22 -4 -46 -5 -52 -2 -19 -31 -16 -39 5 -5 12 -8 6 -12 -22 -8 -60
-25 -54 -37 13 -8 41 -8 71 -1 100 8 30 7 45 -1 55 -9 11 -9 16 0 21 7 5 10
24 6 56 -4 32 -2 49 6 52 16 6 27 -1 27 -19z m740 -11 c0 -7 -4 -13 -9 -13
-10 0 -21 36 -13 45 7 7 22 -15 22 -32z m2037 15 c-3 -8 -6 -5 -6 6 -1 11 2
17 5 13 3 -3 4 -12 1 -19z m-2664 -2 c7 -16 -1 -26 -20 -26 -7 0 -13 9 -13 20
0 23 25 27 33 6z m3681 -13 c9 -22 -12 -43 -23 -24 -10 15 -4 41 9 41 4 0 11
-8 14 -17z m1214 -16 c4 -29 -12 -37 -22 -11 -10 26 -7 46 7 42 6 -3 13 -17
15 -31z m-4828 -7 c0 -23 -4 -30 -20 -30 -22 0 -23 3 -14 38 9 33 34 28 34 -8z
m-75 -31 c-4 -5 1 -9 9 -9 9 0 16 -9 16 -20 0 -22 -35 -46 -45 -30 -9 14 6 81
16 74 5 -3 7 -10 4 -15z m2615 11 c0 -5 -2 -10 -4 -10 -3 0 -8 5 -11 10 -3 6
-1 10 4 10 6 0 11 -4 11 -10z m1010 -20 c0 -5 -7 -10 -16 -10 -8 0 -12 5 -9
10 3 6 10 10 16 10 5 0 9 -4 9 -10z m-3482 -38 c2 -17 -1 -32 -5 -32 -17 0
-33 24 -33 48 0 38 34 24 38 -16z m3422 -4 c0 -10 -5 -18 -10 -18 -15 0 -23
27 -16 47 6 15 8 15 16 3 6 -8 10 -23 10 -32z m58 -41 c2 -10 -3 -17 -11 -17
-16 0 -30 24 -19 34 10 10 27 1 30 -17z m142 1 c0 -16 -3 -19 -11 -11 -6 6 -8
16 -5 22 11 17 16 13 16 -11z m1210 -2 c0 -11 -19 -15 -25 -6 -3 5 1 10 9 10
9 0 16 -2 16 -4z m110 0 c0 -3 -4 -8 -10 -11 -5 -3 -10 -1 -10 4 0 6 5 11 10
11 6 0 10 -2 10 -4z m-5088 -58 c-13 -13 -26 8 -17 30 6 16 7 16 17 -1 7 -13
7 -22 0 -29z m145 17 c3 -9 3 -18 1 -21 -9 -9 -38 8 -38 22 0 19 29 18 37 -1z
m3418 -25 c-14 -15 -14 -19 -1 -29 8 -7 12 -19 9 -27 -4 -10 2 -17 16 -21 l22
-6 -21 -14 c-35 -24 -49 -10 -45 44 2 26 4 59 4 72 1 20 3 22 16 11 14 -12 14
-15 0 -30z m63 -33 c3 -23 0 -28 -15 -25 -11 2 -19 14 -21 31 -3 23 0 28 15
25 11 -2 19 -14 21 -31z m-3548 19 c0 -3 -4 -8 -10 -11 -5 -3 -10 -1 -10 4 0
6 5 11 10 11 6 0 10 -2 10 -4z m2560 -16 c0 -5 -4 -10 -10 -10 -5 0 -10 5 -10
10 0 6 5 10 10 10 6 0 10 -4 10 -10z m1130 -10 c0 -21 -15 -27 -25 -10 -7 12
2 30 16 30 5 0 9 -9 9 -20z m-3764 -46 c-5 -13 -10 -14 -18 -6 -6 6 -8 18 -4
28 5 13 10 14 18 6 6 -6 8 -18 4 -28z m3711 0 c-3 -3 -12 -4 -19 -1 -8 3 -5 6
6 6 11 1 17 -2 13 -5z m-88 -38 c8 -10 9 -25 3 -48 -8 -31 -9 -31 -16 -10 -4
12 -12 22 -17 22 -10 0 -12 33 -2 43 10 11 19 8 32 -7z m-989 -22 c0 -16 -16
-19 -25 -4 -8 13 4 32 16 25 5 -4 9 -13 9 -21z m-110 7 c0 -6 -4 -13 -10 -16
-5 -3 -10 1 -10 9 0 9 5 16 10 16 6 0 10 -4 10 -9z m-2392 -20 c3 -8 -1 -12
-9 -9 -7 2 -15 10 -17 17 -3 8 1 12 9 9 7 -2 15 -10 17 -17z m2560 -10 c12
-33 4 -43 -60 -76 -42 -22 -59 -14 -39 17 11 17 11 22 -1 29 -10 7 -8 9 7 10
11 1 23 1 28 0 4 -1 12 10 17 24 13 34 36 32 48 -4z m-120 -58 c1 -44 -10 -73
-29 -73 -5 0 -6 7 -2 16 5 14 3 14 -16 3 -12 -8 -21 -24 -21 -37 0 -21 -4 -23
-25 -18 -22 6 -25 3 -25 -19 0 -29 -7 -31 -31 -9 -16 15 -18 13 -24 -30 -7
-46 -26 -65 -24 -23 1 12 -3 34 -9 48 -6 16 -7 42 -1 73 11 59 15 66 40 66 12
0 19 7 19 20 0 28 26 36 67 21 30 -11 38 -11 51 3 22 22 29 13 30 -41z m-2438
37 c0 -5 -7 -10 -15 -10 -8 0 -15 5 -15 10 0 6 7 10 15 10 8 0 15 -4 15 -10z
m2619 -37 c1 -7 -8 -13 -19 -13 -23 0 -25 12 -8 43 11 21 11 21 19 2 4 -11 8
-26 8 -32z m-2679 -9 c0 -17 -22 -14 -28 4 -2 7 3 12 12 12 9 0 16 -7 16 -16z
m60 -45 c0 -5 -7 -9 -15 -9 -9 0 -15 9 -15 21 0 18 2 19 15 9 8 -7 15 -16 15
-21z m-60 -51 c0 -26 -2 -29 -15 -18 -15 13 -20 42 -9 53 13 12 24 -4 24 -35z
m2270 -53 c0 -14 5 -25 11 -25 5 0 8 -4 4 -10 -3 -5 -12 -7 -20 -4 -17 7 -29
39 -20 54 11 18 25 10 25 -15z m480 -1 c0 -2 -9 -4 -21 -4 -11 0 -18 4 -14 10
5 8 35 3 35 -6z m-2747 -161 c-3 -13 -9 -23 -13 -23 -13 0 -19 41 -9 67 5 13
6 35 3 48 -3 13 -2 30 3 37 9 15 23 -94 16 -129z m5147 107 c0 -5 -10 -10 -22
-10 -19 0 -20 2 -8 10 19 13 30 13 30 0z m-5080 -36 c0 -25 -7 -29 -29 -15
-10 7 -11 13 -2 30 15 26 31 19 31 -15z m5080 -76 c0 -19 -2 -20 -10 -8 -13
19 -13 30 0 30 6 0 10 -10 10 -22z m-5080 -24 c0 -8 -4 -14 -10 -14 -5 0 -10
9 -10 21 0 11 5 17 10 14 6 -3 10 -13 10 -21z m5157 -6 c-3 -8 -6 -5 -6 6 -1
11 2 17 5 13 3 -3 4 -12 1 -19z m-5217 -43 c0 -18 -5 -25 -20 -25 -20 0 -28
28 -13 43 15 16 33 6 33 -18z m5205 -47 c2 -7 0 -29 -4 -48 -7 -29 -9 -30 -10
-10 -1 14 -4 35 -7 48 -7 23 13 32 21 10z m5 -107 c0 -6 -4 -13 -10 -16 -5 -3
-10 1 -10 9 0 9 5 16 10 16 6 0 10 -4 10 -9z m-5736 -53 c8 -71 10 -96 6 -138
-2 -19 0 -61 3 -92 3 -32 2 -60 -3 -63 -9 -6 -8 -39 3 -65 3 -8 7 -43 9 -77 3
-45 10 -69 25 -85 11 -13 25 -38 31 -56 6 -18 18 -40 27 -48 8 -8 15 -28 15
-43 0 -31 16 -52 36 -44 8 3 16 -5 19 -20 4 -14 18 -35 31 -48 13 -12 24 -27
24 -32 0 -5 7 -15 16 -21 15 -11 18 -42 12 -115 -3 -30 1 -36 22 -41 19 -4 27
-15 34 -43 5 -20 7 -40 3 -43 -3 -3 -21 0 -41 7 -29 10 -38 10 -51 -1 -15 -12
-19 -12 -32 5 -8 11 -19 19 -25 17 -19 -5 -38 20 -36 47 3 22 -1 27 -26 29
-51 6 -123 110 -146 212 -7 30 -16 69 -20 85 -4 20 -13 30 -23 29 -21 -2 -34
43 -18 59 8 8 11 5 11 -11 0 -13 6 -22 15 -22 18 0 18 -4 0 67 -12 43 -14 83
-10 153 4 52 8 124 10 160 6 141 18 232 32 237 7 3 13 13 13 22 0 19 8 31 21
31 4 0 10 -24 13 -52z m5736 -63 c0 -13 -4 -27 -10 -30 -6 -4 -10 8 -10 30 0
22 4 34 10 30 6 -3 10 -17 10 -30z m-543 -67 c-18 -11 -32 9 -19 25 7 8 9 17
6 20 -3 3 -2 12 2 19 6 9 10 2 15 -22 5 -23 3 -37 -4 -42z m55 10 c-6 -6 -16
-7 -22 -3 -9 6 -9 9 1 16 17 10 34 0 21 -13z m143 13 c8 -14 -13 -24 -33 -16
-14 5 -14 7 -2 15 19 12 27 12 35 1z m-325 -51 c0 -5 -5 -10 -11 -10 -5 0 -7
5 -4 10 3 6 8 10 11 10 2 0 4 -4 4 -10z m-4552 -21 c-2 -6 -8 -10 -13 -10 -5
0 -11 4 -13 10 -2 6 4 11 13 11 9 0 15 -5 13 -11z m4752 -30 c0 -5 -4 -9 -10
-9 -5 0 -10 7 -10 16 0 8 5 12 10 9 6 -3 10 -10 10 -16z m-78 -21 c-9 -9 -15
-9 -24 0 -9 9 -7 12 12 12 19 0 21 -3 12 -12z m-4924 -40 c2 -13 -4 -30 -12
-37 -11 -9 -12 -19 -6 -35 4 -12 11 -52 15 -90 7 -63 6 -68 -14 -73 -11 -3
-21 -10 -21 -17 0 -24 36 -96 48 -96 6 0 12 -11 12 -24 0 -14 5 -28 10 -31 14
-9 12 -55 -2 -55 -7 0 -23 12 -35 28 -111 131 -133 179 -107 241 8 19 14 48
12 65 -1 17 4 41 11 54 7 13 14 32 16 43 5 23 45 60 60 55 6 -1 11 -14 13 -28z
m4799 10 c-3 -8 -6 -5 -6 6 -1 11 2 17 5 13 3 -3 4 -12 1 -19z m65 -10 c-7 -7
-12 -8 -12 -2 0 14 12 26 19 19 2 -3 -1 -11 -7 -17z m66 4 c2 -7 -3 -12 -12
-12 -9 0 -16 7 -16 16 0 17 22 14 28 -4z m-4438 -171 c7 -14 7 -27 -2 -45 -12
-27 -32 -37 -22 -11 4 8 -1 17 -10 21 -14 5 -14 8 2 30 21 29 19 28 32 5z
m-230 -36 c0 -18 6 -35 13 -38 9 -3 9 -9 1 -23 -17 -30 -39 -23 -40 11 0 17
-4 36 -8 43 -4 7 -5 21 -1 32 10 30 35 13 35 -25z m2951 -28 c22 -16 44 -19
130 -19 142 -1 231 3 250 13 8 4 21 4 29 -1 10 -6 18 -2 28 11 7 11 25 19 40
19 51 0 227 -33 237 -45 6 -6 22 -15 37 -18 14 -4 37 -16 50 -27 12 -11 34
-29 46 -39 51 -42 -3 -82 -55 -42 -14 12 -43 24 -64 27 -21 4 -44 13 -50 20
-8 10 -16 11 -30 3 -13 -6 -25 -6 -38 1 -14 7 -23 6 -33 -3 -7 -7 -24 -13 -38
-14 -40 -3 -64 -8 -79 -17 -7 -5 -38 -10 -68 -12 -30 -2 -64 -10 -76 -18 -26
-15 -120 -14 -186 3 -32 9 -47 9 -57 0 -10 -8 -19 -7 -36 5 -29 21 -67 20 -89
0 -18 -16 -29 -15 -61 8 -19 14 -122 -6 -149 -29 -8 -7 -29 -13 -46 -13 -16 0
-40 -9 -53 -20 -13 -11 -30 -20 -39 -20 -9 -1 -50 -30 -91 -65 -41 -36 -84
-68 -95 -71 -11 -4 -26 -16 -34 -26 -8 -12 -21 -18 -33 -15 -10 3 -21 0 -24
-6 -6 -17 -78 -13 -82 5 -3 15 68 78 90 78 7 0 24 16 38 36 65 90 77 104 105
116 17 7 34 12 38 10 11 -3 77 47 113 87 29 33 31 33 55 18 33 -21 78 -11 89
19 7 17 17 24 35 24 33 0 95 26 95 40 0 16 70 1 101 -23z m1672 -16 c7 -34 4
-38 -38 -45 -19 -4 -35 -11 -35 -16 0 -6 -12 -10 -27 -10 -24 1 -25 2 -10 11
9 5 17 16 17 24 0 8 9 20 19 27 18 11 18 13 3 24 -14 11 -11 13 25 12 36 0 42
-3 46 -27z m-4397 -16 c12 -12 13 -19 3 -36 l-11 -22 -19 24 c-13 17 -15 27
-7 36 13 16 16 16 34 -2z m64 -25 c0 -10 5 -22 11 -26 8 -4 7 -9 -2 -15 -24
-15 -29 -10 -29 32 0 24 4 38 10 34 6 -3 10 -15 10 -25z m4332 -41 c-3 -23 0
-26 21 -22 30 6 37 -10 27 -62 -7 -34 -15 -24 -11 13 1 7 -10 12 -29 12 -33 0
-38 -11 -15 -30 17 -15 20 -30 4 -30 -17 0 -41 29 -34 40 4 6 3 16 -2 23 -8
10 -10 57 -4 83 0 3 11 4 24 2 17 -2 21 -9 19 -29z m-4437 11 c-3 -5 -10 -10
-16 -10 -5 0 -9 5 -9 10 0 6 7 10 16 10 8 0 12 -4 9 -10z m4367 -45 c8 -17 8
-29 1 -36 -13 -13 -47 25 -40 46 9 23 26 18 39 -10z m-4252 5 c0 -5 -2 -10 -4
-10 -3 0 -8 5 -11 10 -3 6 -1 10 4 10 6 0 11 -4 11 -10z m3573 -51 c-7 -7 -20
-8 -30 -5 -17 7 -17 8 1 22 23 17 48 2 29 -17z m-3703 -9 c8 -15 7 -25 -3 -40
-18 -25 -27 -16 -27 27 0 37 14 43 30 13z m3748 -9 c3 -8 -1 -12 -9 -9 -7 2
-15 10 -17 17 -3 8 1 12 9 9 7 -2 15 -10 17 -17z m822 -11 c0 -11 -4 -20 -9
-20 -5 0 -11 9 -14 20 -3 13 0 20 9 20 8 0 14 -9 14 -20z m-4610 -24 c0 -16
-33 -27 -50 -16 -9 5 -5 12 11 23 24 17 39 14 39 -7z m4610 -22 c0 -10 -12
-14 -40 -14 -54 0 -54 24 0 27 28 1 40 -3 40 -13z m-4565 -53 c-4 -13 -13 -21
-23 -19 -21 4 -27 34 -11 54 11 13 14 13 27 1 9 -9 11 -23 7 -36z m4529 19
c-12 -5 -25 -21 -29 -37 l-8 -28 -8 29 c-11 38 -5 46 34 45 28 0 29 -1 11 -9z
m45 -68 c-5 -2 -9 -17 -9 -33 0 -31 -11 -37 -29 -15 -11 13 -6 40 11 63 8 10
13 10 23 0 7 -7 9 -13 4 -15z m52 -5 c-1 -12 -15 -9 -19 4 -3 6 1 10 8 8 6 -3
11 -8 11 -12z m56 -39 c-3 -8 -6 -5 -6 6 -1 11 2 17 5 13 3 -3 4 -12 1 -19z
m-4357 -39 c0 -12 -5 -19 -11 -17 -6 2 -10 7 -10 11 1 4 1 14 1 23 0 8 5 12
10 9 6 -3 10 -15 10 -26z m4180 -3 c0 -11 -19 -15 -25 -6 -3 5 1 10 9 10 9 0
16 -2 16 -4z m-3989 -39 c-1 -12 -15 -9 -19 4 -3 6 1 10 8 8 6 -3 11 -8 11
-12z m4047 -13 c12 -8 20 -19 17 -24 -8 -14 15 -24 28 -11 19 19 27 12 27 -19
0 -17 6 -33 14 -36 8 -3 12 -12 9 -21 -5 -12 -7 -12 -14 -1 -6 9 -9 3 -9 -17
0 -45 -11 -75 -26 -75 -11 0 -54 -67 -54 -85 0 -3 11 -5 25 -5 21 0 25 5 25
30 0 17 5 30 10 30 6 0 10 -18 10 -39 l0 -39 -77 -4 c-104 -5 -158 19 -118 52
20 16 19 30 -2 46 -17 13 -17 15 3 32 11 10 23 29 27 42 3 14 8 35 12 47 6 18
2 25 -18 34 -25 11 -27 42 -2 33 7 -3 18 7 26 26 12 26 18 30 39 25 14 -4 35
-13 48 -21z m-4510 -41 c-3 -30 -25 -42 -34 -19 -6 17 11 46 28 46 5 0 8 -12
6 -27z m518 1 c-5 -14 -9 -15 -19 -5 -9 9 -9 14 3 21 18 11 24 6 16 -16z
m-124 -56 c2 -36 -1 -66 -7 -70 -18 -13 -35 -8 -35 10 0 10 6 24 13 31 9 10 9
15 1 18 -7 2 -10 14 -7 26 15 70 30 63 35 -15z m2770 35 c8 -35 -2 -53 -32
-53 -16 0 -32 -5 -36 -11 -3 -6 -16 -8 -27 -5 -12 3 -53 1 -92 -4 -78 -11
-194 -15 -272 -10 -43 3 -53 7 -65 28 -10 20 -10 26 0 29 6 3 12 11 12 19 0 8
5 14 10 14 6 0 10 -7 10 -16 0 -9 5 -12 11 -8 15 9 99 12 104 4 2 -4 40 -5 85
-4 62 2 84 -1 96 -14 13 -12 20 -13 35 -4 12 8 19 8 19 2 0 -16 27 -11 34 6 5
12 14 15 40 10 28 -5 34 -3 39 14 6 25 23 26 29 3z m116 6 c-2 -6 -8 -10 -13
-10 -5 0 -11 4 -13 10 -2 6 4 11 13 11 9 0 15 -5 13 -11z m-28 -33 c0 -15 -37
-32 -47 -22 -3 3 -3 12 0 21 8 19 47 20 47 1z m-2808 -28 c-7 -7 -12 -8 -12
-2 0 6 3 14 7 17 3 4 9 5 12 2 2 -3 -1 -11 -7 -17z m98 -23 c30 -16 48 -54 34
-76 -10 -16 -35 17 -27 37 3 8 0 14 -6 14 -6 0 -11 -4 -11 -9 0 -5 -11 -11
-25 -13 -22 -5 -25 -2 -25 22 0 44 13 49 60 25z m-417 -7 c2 -7 2 -19 -1 -26
-3 -9 -8 -8 -18 5 -7 10 -14 21 -14 26 0 12 28 8 33 -5z m331 -34 c12 -5 13
-10 5 -25 -12 -23 -29 -16 -29 12 0 21 1 22 24 13z m-337 -51 c-2 -31 -6 -39
-23 -41 -17 -2 -23 -13 -29 -45 l-7 -42 -15 33 c-15 36 -5 62 22 62 7 0 20 16
29 35 9 19 19 35 20 35 2 0 3 -17 3 -37z m3911 18 c24 -20 29 -55 11 -67 -8
-5 -6 -10 5 -16 9 -5 20 -7 25 -4 10 7 30 -22 56 -84 10 -25 27 -53 37 -63 14
-14 17 -27 12 -53 -6 -30 -3 -36 15 -41 26 -7 27 -20 1 -28 -12 -4 -22 -19
-26 -40 -10 -57 -23 -29 -18 40 3 41 1 65 -6 65 -5 0 -10 -8 -10 -17 0 -9 -7
-24 -16 -34 -12 -14 -13 -22 -4 -38 6 -12 8 -26 5 -31 -3 -5 -7 -54 -9 -109
-2 -54 -6 -104 -10 -110 -14 -21 -26 -11 -26 23 0 39 -26 69 -36 42 -5 -14 -9
-13 -35 5 -24 17 -27 24 -18 35 8 10 9 18 0 27 -6 8 -8 17 -3 21 4 4 -1 12
-11 17 -9 6 -17 17 -17 26 0 9 -6 13 -15 10 -22 -9 -28 9 -14 48 10 27 10 38
1 47 -18 18 -15 35 9 57 17 16 20 27 15 54 -5 24 -2 38 9 47 8 6 17 27 21 46
3 19 10 37 15 40 5 3 9 11 9 18 0 23 -67 36 -80 16 -3 -4 -17 -6 -32 -5 -16 2
-28 -1 -28 -6 0 -5 -5 -9 -11 -9 -6 0 -9 8 -7 18 2 9 8 17 13 17 6 0 20 9 33
20 41 36 109 44 140 16z m-4038 -36 c0 -8 -4 -15 -10 -15 -5 0 -10 7 -10 15 0
8 5 15 10 15 6 0 10 -7 10 -15z m390 -5 c0 -11 -7 -20 -15 -20 -27 0 -18 30
13 39 1 1 2 -8 2 -19z m280 6 c0 -17 -14 -29 -23 -20 -8 8 3 34 14 34 5 0 9
-6 9 -14z m2311 -30 c23 -4 48 -14 56 -24 12 -16 14 -16 27 1 7 9 25 17 40 17
15 0 36 5 47 10 13 8 19 7 19 0 0 -16 72 -9 93 9 16 14 18 13 24 -7 6 -25 35
-29 53 -7 19 23 42 19 38 -7 -2 -16 -14 -26 -38 -34 -25 -8 -36 -18 -38 -35
-2 -13 -7 -27 -11 -32 -12 -12 -75 36 -81 62 -8 34 -30 39 -30 7 0 -14 5 -26
10 -26 6 0 4 -16 -5 -37 -20 -47 -19 -47 -44 -31 -16 10 -23 10 -33 0 -19 -19
-28 -14 -28 18 0 23 -5 30 -19 30 -10 0 -21 -9 -24 -21 -3 -11 -15 -23 -26
-26 -12 -3 -21 -14 -21 -24 0 -11 -3 -19 -7 -19 -17 1 -39 26 -36 40 2 8 -4 2
-14 -13 -13 -20 -23 -26 -38 -22 -44 13 -85 12 -95 0 -21 -26 -41 -6 -37 36 7
67 -33 88 -78 42 -9 -8 -25 -16 -38 -18 -12 -1 -30 -6 -41 -10 -16 -7 -17 -5
-11 23 5 25 2 33 -14 42 -48 25 -7 76 52 65 55 -10 131 -11 167 -2 19 5 46 8
58 8 13 -1 31 3 40 8 10 6 20 4 28 -4 7 -7 32 -15 55 -19z m-443 2 c18 -18 14
-53 -8 -73 -20 -18 -21 -18 -32 12 -10 26 -14 29 -29 20 -10 -6 -22 -8 -26 -4
-11 12 11 41 38 48 36 10 44 10 57 -3z m-193 -28 c3 -5 1 -10 -4 -10 -6 0 -11
5 -11 10 0 6 2 10 4 10 3 0 8 -4 11 -10z m45 -20 c0 -5 -7 -7 -15 -4 -8 4 -15
8 -15 10 0 2 7 4 15 4 8 0 15 -4 15 -10z m-2270 -14 c0 -3 -4 -8 -10 -11 -5
-3 -10 -1 -10 4 0 6 5 11 10 11 6 0 10 -2 10 -4z m1906 -12 c7 3 18 -1 24 -9
6 -8 18 -11 26 -8 7 3 32 -4 54 -16 22 -12 51 -21 65 -21 13 0 27 -4 30 -10 3
-5 17 -10 31 -10 13 0 32 -8 43 -19 10 -10 27 -24 37 -30 15 -10 10 -11 -26
-5 -25 3 -53 11 -64 16 -10 6 -33 8 -52 5 -20 -3 -39 0 -51 8 -10 8 -25 15
-34 15 -9 0 -24 9 -34 20 -22 24 -43 25 -73 4 -18 -12 -20 -19 -12 -29 6 -8
21 -15 32 -17 25 -4 36 -25 13 -25 -8 0 -15 4 -15 9 0 4 -7 8 -15 8 -8 0 -15
-9 -15 -20 0 -21 -14 -27 -24 -11 -4 5 -1 11 6 13 9 3 9 6 1 11 -7 5 -17 -1
-23 -13 -6 -11 -21 -20 -34 -20 -31 0 -54 -26 -37 -43 9 -9 16 -9 31 1 29 18
33 15 27 -15 -7 -35 14 -68 31 -51 7 7 12 8 12 2 0 -5 -4 -14 -10 -20 -6 -6 9
-29 40 -63 28 -29 50 -57 50 -61 0 -4 14 -10 30 -13 27 -6 30 -11 30 -42 0
-35 13 -47 23 -21 4 9 19 14 41 13 31 -1 35 -4 41 -34 6 -36 25 -45 25 -13 0
11 7 20 16 20 11 0 14 -6 9 -21 -7 -20 -5 -21 25 -16 17 4 40 2 51 -3 18 -10
18 -12 3 -36 -16 -23 -15 -26 1 -44 23 -26 35 -25 35 1 0 23 24 21 26 -2 0 -8
7 -27 15 -43 l14 -29 5 24 c8 31 32 31 40 -1 4 -16 13 -25 25 -25 13 0 21 -8
23 -22 4 -25 17 -30 28 -12 4 7 21 9 45 5 31 -5 39 -3 39 9 0 8 7 15 15 15 8
0 15 -9 15 -20 0 -26 15 -26 33 0 14 20 14 20 33 -1 17 -19 19 -19 31 -3 9 12
16 14 25 7 7 -6 28 -13 47 -17 19 -3 40 -14 47 -23 11 -16 16 -16 49 -5 28 11
39 11 50 2 8 -7 26 -10 39 -6 16 4 26 1 30 -9 3 -8 12 -15 21 -15 18 0 20 16
3 23 -7 3 -1 6 15 6 18 1 27 -4 27 -14 0 -21 27 -19 39 3 8 13 12 14 22 5 9
-9 15 -8 26 3 12 11 18 12 29 3 8 -6 22 -9 33 -6 10 2 25 1 32 -4 8 -5 20 -2
31 8 17 15 20 15 38 -2 13 -12 20 -14 20 -5 0 8 9 11 27 7 15 -3 35 0 45 7 16
9 22 8 33 -7 10 -14 21 -17 49 -11 20 3 39 10 42 15 3 5 14 9 25 9 13 0 19 -7
20 -22 0 -15 2 -18 6 -8 9 26 34 39 65 33 27 -5 29 -4 22 21 -3 15 -2 26 4 26
15 0 34 -28 27 -40 -3 -6 3 -10 14 -10 13 0 21 7 21 18 1 16 1 16 11 0 5 -10
19 -18 30 -18 13 0 19 6 17 18 -2 13 3 17 24 15 21 -1 29 4 37 25 7 21 10 22
10 8 1 -20 1 -20 16 0 8 10 15 32 15 47 0 17 4 26 10 22 6 -4 8 -11 5 -16 -4
-5 -2 -9 3 -9 5 0 12 -9 15 -21 4 -15 11 -19 25 -15 13 5 24 0 34 -16 19 -29
21 -87 4 -94 -9 -4 -12 -28 -9 -90 3 -66 1 -85 -9 -82 -7 3 -17 26 -23 52 -12
56 -25 51 -25 -10 0 -44 -19 -74 -46 -74 -17 0 -18 22 -2 38 6 6 9 15 5 19
-11 10 -37 -29 -34 -52 1 -15 10 -20 32 -20 27 -1 29 -3 28 -38 0 -36 -13 -68
-13 -34 0 19 -13 24 -56 19 -20 -3 -34 -10 -34 -18 0 -7 -9 -18 -20 -24 -11
-6 -20 -8 -20 -4 0 3 -7 1 -14 -6 -11 -8 -14 -28 -12 -66 2 -29 1 -56 -2 -59
-8 -8 -42 26 -42 42 0 15 -16 17 -25 3 -3 -5 -15 -10 -25 -10 -10 0 -25 -9
-34 -21 -10 -14 -20 -19 -34 -15 -13 4 -22 1 -26 -9 -11 -28 -28 -17 -21 15 4
18 3 30 -4 30 -14 0 -22 -32 -20 -78 2 -32 -3 -44 -30 -71 -26 -25 -29 -32
-16 -37 26 -11 16 -21 -16 -16 -20 3 -33 12 -36 23 -3 11 -9 19 -14 19 -11 0
2 -73 15 -83 8 -6 7 -10 -3 -14 -8 -3 -9 -8 -3 -12 14 -9 25 -51 14 -51 -6 0
-13 7 -16 16 -4 10 -13 13 -26 9 -13 -4 -22 -1 -26 9 -8 21 -84 23 -84 2 0
-20 -19 -31 -32 -18 -8 8 -4 17 12 30 24 19 36 52 19 52 -5 0 -9 -6 -9 -12 0
-7 -14 2 -30 19 -19 22 -37 32 -52 30 -19 -2 -24 4 -28 33 -3 23 -8 31 -13 22
-5 -7 -6 -25 -2 -41 7 -32 -10 -50 -28 -32 -8 8 -9 16 -1 29 7 10 8 34 4 62
-4 25 -8 39 -9 32 0 -7 -5 -11 -9 -8 -5 3 -9 -33 -9 -80 0 -62 -4 -89 -15
-100 -17 -17 -52 -8 -44 12 4 10 -4 14 -28 14 -22 0 -36 6 -40 16 -3 8 -11 12
-17 9 -5 -4 -16 1 -24 11 -13 18 -15 18 -46 -11 -22 -21 -33 -26 -36 -17 -3 7
-14 22 -26 32 -23 22 -41 14 -53 -22 -4 -13 -12 -18 -25 -15 -10 3 -24 -1 -30
-9 -16 -19 -39 0 -32 26 7 26 -8 25 -31 -1 -21 -25 -38 -14 -37 22 1 46 -3
129 -6 129 -14 0 -33 -16 -33 -29 -1 -14 -3 -13 -15 3 -13 17 -15 18 -15 3 0
-14 -9 -16 -55 -13 -30 3 -57 0 -60 -5 -4 -5 -13 -9 -21 -9 -12 0 -15 9 -13
35 4 46 -12 62 -42 41 -29 -20 -49 -21 -49 -1 0 8 -4 15 -9 15 -5 0 -7 -20 -5
-45 3 -31 0 -47 -8 -50 -7 -3 -14 -20 -15 -37 -4 -47 -23 -62 -51 -42 -20 14
-23 23 -20 68 3 48 1 51 -22 55 -30 4 -40 17 -40 53 0 27 -29 46 -50 33 -5 -3
-10 -1 -10 5 0 15 -25 7 -26 -8 -1 -7 -2 -18 -3 -24 -2 -21 -21 14 -21 40 0
25 -22 29 -40 7 -19 -23 -31 -8 -28 36 1 21 -3 44 -10 51 -7 7 -12 25 -12 41
0 23 -4 28 -16 23 -23 -9 -57 23 -43 40 7 8 7 14 -1 19 -14 9 -32 -5 -26 -20
3 -8 0 -16 -7 -19 -8 -3 -9 -7 -2 -13 17 -14 18 -53 1 -53 -9 0 -16 12 -18 32
-4 42 -23 46 -36 8 -14 -38 -32 -39 -32 0 0 23 5 31 26 36 17 4 23 11 20 21
-3 8 -6 21 -6 29 0 8 -8 14 -19 14 -28 0 -34 45 -7 48 11 0 24 -4 28 -11 12
-19 8 75 -5 111 -7 18 -24 38 -37 45 -14 7 -26 23 -28 35 -3 22 -22 32 -22 11
0 -7 -12 -9 -35 -5 -36 7 -41 2 -37 -46 2 -21 -8 -23 -30 -5 -35 26 -22 144
20 190 20 21 27 39 27 73 1 26 7 49 14 54 18 10 5 30 -19 30 -30 0 -35 21 -9
41 33 24 18 34 -21 14 -18 -9 -34 -14 -38 -11 -3 3 0 6 8 6 9 0 10 3 1 14 -8
10 -7 19 6 37 37 51 45 69 30 75 -8 3 -27 4 -43 2 -25 -3 -28 1 -36 36 -5 25
-5 43 2 50 7 7 10 5 11 -7 1 -9 2 -23 3 -29 2 -23 40 -14 53 12 7 14 13 19 13
13 0 -7 6 -13 14 -13 13 0 23 29 30 88 5 40 127 84 169 60 11 -6 17 -5 17 1 0
14 30 18 74 9 22 -5 45 -7 52 -4z m2421 -6 c-3 -8 -6 -5 -6 6 -1 11 2 17 5 13
3 -3 4 -12 1 -19z m-709 -5 c-2 -10 -9 -17 -16 -16 -6 2 -16 -6 -22 -17 -10
-19 -60 -29 -60 -12 0 14 23 32 41 32 9 0 22 7 29 15 17 20 32 19 28 -2z m429
-15 c-3 -7 -5 -2 -5 12 0 14 2 19 5 13 2 -7 2 -19 0 -25z m-4097 -20 c0 -13
-5 -30 -10 -38 -9 -13 -11 -13 -20 0 -11 17 -13 44 -3 53 14 15 33 6 33 -15z
m127 -75 c3 -52 1 -63 -13 -63 -12 0 -15 9 -12 43 2 29 -1 41 -9 40 -7 -2 -13
1 -13 6 0 5 -3 16 -6 24 -3 8 3 22 12 32 16 16 18 16 27 -1 6 -10 12 -47 14
-81z m581 75 c-4 -27 -28 -36 -28 -10 0 20 8 32 22 32 5 0 8 -10 6 -22z m95
-3 c8 -18 -11 -31 -25 -17 -11 11 -3 32 12 32 4 0 10 -7 13 -15z m2354 -7 c-3
-8 -6 -5 -6 6 -1 11 2 17 5 13 3 -3 4 -12 1 -19z m-3095 -70 c-3 -14 -8 -15
-23 -7 -23 12 -24 18 -1 39 15 15 18 15 23 1 3 -9 4 -24 1 -33z m585 20 c-3
-8 -6 -5 -6 6 -1 11 2 17 5 13 3 -3 4 -12 1 -19z m2453 6 c0 -17 -22 -14 -28
4 -2 7 3 12 12 12 9 0 16 -7 16 -16z m-2257 -19 c-7 -21 -13 -19 -13 6 0 11 4
18 10 14 5 -3 7 -12 3 -20z m3987 11 c0 -11 -19 -15 -25 -6 -3 5 1 10 9 10 9
0 16 -2 16 -4z m-2490 -31 c10 -12 10 -15 -3 -15 -8 0 -20 7 -27 15 -10 12
-10 15 3 15 8 0 20 -7 27 -15z m891 -1 c18 -22 -3 -34 -63 -34 -84 0 -57 30
43 49 4 0 12 -6 20 -15z m123 -5 c4 -3 -15 -9 -40 -13 -49 -6 -60 -4 -51 11 6
10 82 11 91 2z m812 -16 c-10 -10 -19 5 -10 18 6 11 8 11 12 0 2 -7 1 -15 -2
-18z m-1373 3 c3 -8 -1 -20 -9 -27 -20 -16 -110 -17 -126 -1 -15 15 -3 28 14
15 19 -15 98 -4 98 13 0 18 16 18 23 0z m252 -5 c0 -25 -74 -43 -147 -36 -38
4 -68 11 -68 16 0 9 14 13 36 10 6 -1 17 5 23 13 17 20 156 18 156 -3z m65 5
c0 -8 -7 -17 -16 -20 -23 -9 -24 -8 -24 14 0 13 7 20 20 20 11 0 20 -6 20 -14z
m-570 -11 c0 -9 -6 -12 -15 -9 -8 4 -12 10 -9 15 8 14 24 10 24 -6z m-2346
-20 c8 -21 -3 -45 -20 -45 -8 0 -14 10 -14 23 0 36 22 51 34 22z m4238 -27
c-9 -9 -12 -7 -12 12 0 19 3 21 12 12 9 -9 9 -15 0 -24z m8 -98 c-7 -5 -23 -4
-35 0 -14 5 -27 4 -34 -3 -8 -8 -11 -4 -11 16 0 18 4 25 13 21 7 -2 22 5 32
16 l18 20 15 -31 c13 -25 13 -32 2 -39z m-4097 -43 c-2 -82 -3 -87 -17 -87 -7
0 -16 11 -18 25 -3 14 -1 25 4 25 5 0 6 15 2 34 -7 37 1 59 19 53 6 -2 11 -24
10 -50z m-61 30 c-6 -6 -12 -28 -14 -47 -3 -40 -21 -47 -26 -11 -6 41 7 71 29
71 16 0 19 -3 11 -13z m4035 -30 c-6 -20 -27 -19 -27 2 0 14 5 19 15 14 9 -3
14 -10 12 -16z m-3917 -3 c0 -9 -7 -14 -17 -12 -25 5 -28 28 -4 28 12 0 21 -6
21 -16z m260 7 c0 -6 -4 -13 -10 -16 -5 -3 -10 1 -10 9 0 9 5 16 10 16 6 0 10
-4 10 -9z m-188 -21 c12 -11 29 -18 37 -15 9 2 22 1 29 -4 11 -7 10 -9 -3 -15
-9 -3 -13 -11 -10 -16 4 -6 3 -24 0 -41 -6 -29 -9 -30 -40 -25 -28 6 -33 3
-39 -16 -6 -21 -7 -22 -17 -5 -6 10 -8 24 -6 32 8 18 -4 27 -18 15 -9 -7 -16
-6 -24 4 -10 12 -9 17 8 28 12 7 21 19 21 27 0 13 28 51 37 51 2 0 14 -9 25
-20z m3958 -21 c0 -5 -10 -9 -21 -9 -18 0 -19 2 -9 15 12 15 30 12 30 -6z
m-3316 -10 c-3 -5 -10 -7 -15 -3 -5 3 -7 10 -3 15 3 5 10 7 15 3 5 -3 7 -10 3
-15z m68 -26 c7 -10 19 -18 27 -18 23 0 31 -51 15 -92 -12 -26 -18 -33 -27
-24 -6 6 -20 11 -32 11 -18 0 -20 7 -23 60 -4 79 10 102 40 63z m122 -16 c8
-14 8 -20 -4 -28 -11 -7 -8 -8 13 -3 23 5 26 3 21 -11 -4 -10 -14 -15 -25 -12
-11 3 -22 1 -25 -5 -10 -16 -24 13 -24 50 0 26 4 33 16 30 9 -2 22 -11 28 -21z
m109 -3 c-4 -10 -9 -12 -15 -6 -12 12 -1 35 12 27 5 -3 6 -13 3 -21z m-823
-18 c0 -63 -22 -89 -34 -40 -4 14 -2 32 4 40 7 7 9 18 5 24 -3 5 1 10 9 10 11
0 16 -10 16 -34z m460 12 c0 -13 -4 -30 -10 -38 -7 -11 -11 -9 -19 14 -12 31
-7 46 15 46 8 0 14 -10 14 -22z m-73 -54 c-9 -9 -28 6 -21 18 4 6 10 6 17 -1
6 -6 8 -13 4 -17z m-467 -39 c0 -8 -4 -15 -10 -15 -5 0 -7 7 -4 15 4 8 8 15
10 15 2 0 4 -7 4 -15z m3533 -89 c-3 -51 -8 -54 -36 -24 -13 14 -30 27 -37 30
-8 2 -11 11 -7 22 5 13 16 16 44 14 37 -3 38 -4 36 -42z m-2743 -24 c0 -21 4
-42 9 -47 13 -14 -5 -55 -24 -55 -10 0 -15 10 -15 35 0 22 -6 38 -17 44 -17
10 -17 12 0 25 9 7 17 18 17 25 0 6 7 11 15 11 11 0 15 -11 15 -38z m-784 14
c8 -8 14 -20 14 -26 0 -7 6 -8 19 -1 24 13 44 -8 39 -41 -4 -32 -36 -36 -47
-5 -5 13 -21 31 -35 40 -26 17 -36 47 -15 47 6 0 17 -6 25 -14z m2014 -6 c0
-5 -4 -10 -10 -10 -5 0 -10 5 -10 10 0 6 5 10 10 10 6 0 10 -4 10 -10z m1228
-21 c-2 -6 -8 -10 -13 -10 -5 0 -11 4 -13 10 -2 6 4 11 13 11 9 0 15 -5 13
-11z m-3035 -29 c3 -10 -1 -24 -9 -31 -11 -9 -14 -8 -14 4 0 8 -3 22 -6 31 -4
10 -1 16 9 16 8 0 17 -9 20 -20z m260 -26 c-4 -12 -8 -12 -18 3 -7 9 -10 24
-7 31 4 12 7 12 18 -3 7 -9 10 -23 7 -31z m373 -4 c0 -11 -6 -20 -13 -20 -7 0
-13 9 -13 20 0 11 6 20 13 20 7 0 13 -9 13 -20z m2287 13 c-7 -2 -19 -2 -25 0
-7 3 -2 5 12 5 14 0 19 -2 13 -5z m-2463 -36 c0 -36 36 -129 53 -139 24 -13
10 -40 -14 -27 -16 8 -19 6 -19 -15 0 -27 -15 -43 -25 -26 -3 5 -8 42 -11 82
-2 40 -6 87 -8 103 -4 32 0 45 15 45 5 0 9 -10 9 -23z m2871 -10 c-8 -8 -11
-7 -11 4 0 20 13 34 18 19 3 -7 -1 -17 -7 -23z m-3401 7 c0 -17 -22 -14 -28 4
-2 7 3 12 12 12 9 0 16 -7 16 -16z m410 2 c0 -8 -4 -18 -10 -21 -5 -3 -10 -4
-10 -1 0 2 -3 11 -6 20 -4 11 -1 16 10 16 9 0 16 -6 16 -14z m190 -33 c0 -7
-6 -13 -14 -13 -9 0 -12 8 -8 26 3 19 7 22 13 12 5 -7 9 -19 9 -25z m130 -30
c0 -16 -8 -27 -25 -33 -22 -8 -25 -15 -25 -59 0 -31 -5 -53 -15 -61 -21 -18
-28 -8 -36 53 -3 29 -9 59 -13 67 -4 11 6 23 34 40 22 13 42 31 45 40 6 13 9
12 21 -4 8 -11 14 -30 14 -43z m-522 2 c-3 -3 -9 2 -12 12 -6 14 -5 15 5 6 7
-7 10 -15 7 -18z m274 -5 c4 -24 1 -30 -14 -30 -13 0 -18 8 -18 30 0 19 5 30
14 30 8 0 16 -13 18 -30z m611 10 c-4 -16 -8 -18 -19 -9 -20 16 -17 29 5 29
14 0 18 -5 14 -20z m2312 -1 c4 -11 4 -23 0 -27 -7 -7 -25 17 -25 36 0 20 18
14 25 -9z m-2595 -24 c0 -8 -4 -15 -9 -15 -5 0 -12 -12 -16 -27 -7 -28 -7 -28
-20 12 -10 28 -11 43 -3 52 13 16 48 0 48 -22z m-530 -11 c0 -8 -5 -12 -10 -9
-6 4 -8 11 -5 16 9 14 15 11 15 -7z m775 6 c-3 -5 -10 -10 -16 -10 -5 0 -9 5
-9 10 0 6 7 10 16 10 8 0 12 -4 9 -10z m-650 -100 c3 -5 1 -10 -4 -10 -6 0
-11 5 -11 10 0 6 2 10 4 10 3 0 8 -4 11 -10z m643 -12 c-2 -13 -7 -23 -13 -23
-5 0 -11 10 -13 23 -2 15 2 22 13 22 11 0 15 -7 13 -22z m-426 -47 c-2 -20 1
-23 24 -18 32 6 45 -20 19 -39 -38 -28 -112 46 -78 80 15 15 38 0 35 -23z
m165 -27 c-3 -3 -12 -4 -19 -1 -8 3 -5 6 6 6 11 1 17 -2 13 -5z m233 -9 c0 -8
-4 -15 -10 -15 -5 0 -10 7 -10 15 0 8 5 15 10 15 6 0 10 -7 10 -15z m-144 -72
c-10 -10 -19 5 -10 18 6 11 8 11 12 0 2 -7 1 -15 -2 -18z m94 7 c-6 -11 -12
-20 -14 -20 -3 0 -1 23 3 38 1 1 6 2 11 2 7 0 7 -6 0 -20z m57 -42 c-3 -8 -6
-5 -6 6 -1 11 2 17 5 13 3 -3 4 -12 1 -19z m-47 -47 c0 -12 -20 -25 -27 -18
-7 7 6 27 18 27 5 0 9 -4 9 -9z m455 -40 c3 -5 -2 -17 -12 -26 -15 -15 -17
-15 -25 -1 -5 9 -6 21 -3 26 8 13 32 13 40 1z m1645 -61 c0 -5 -4 -10 -9 -10
-6 0 -13 5 -16 10 -3 6 1 10 9 10 9 0 16 -4 16 -10z m-1184 -67 c-10 -10 -19
5 -10 18 6 11 8 11 12 0 2 -7 1 -15 -2 -18z m-341 -74 c11 -16 1 -19 -13 -3
-7 8 -8 14 -3 14 5 0 13 -5 16 -11z m117 -11 c-7 -7 -12 -8 -12 -2 0 14 12 26
19 19 2 -3 -1 -11 -7 -17z m-1979 -89 c5 -54 3 -77 -8 -93 -14 -19 -15 -14
-16 54 0 41 -2 88 -4 103 -3 22 -1 26 9 18 7 -6 16 -43 19 -82z m2637 16 c-21
-26 -31 -5 -13 27 17 27 18 28 21 8 2 -11 -2 -28 -8 -35z m-967 28 c-7 -2 -13
-11 -13 -19 0 -9 -5 -12 -10 -9 -13 8 6 35 24 34 7 0 6 -2 -1 -6z m284 -35
c-3 -8 -6 -5 -6 6 -1 11 2 17 5 13 3 -3 4 -12 1 -19z m-90 -170 c-3 -7 -5 -2
-5 12 0 14 2 19 5 13 2 -7 2 -19 0 -25z m2450 -283 c3 -60 9 -126 14 -145 5
-19 8 -62 8 -95 -1 -56 -2 -58 -10 -23 -4 20 -10 51 -13 70 -2 18 -12 60 -21
93 -18 63 -24 222 -10 245 15 24 26 -29 32 -145z m-3597 -656 c0 -5 -4 -9 -10
-9 -5 0 -10 7 -10 16 0 8 5 12 10 9 6 -3 10 -10 10 -16z m2154 -72 c13 -10 17
-24 14 -57 l-3 -45 -47 -3 c-27 -2 -48 0 -48 4 0 3 9 23 19 43 11 20 22 44 25
54 6 20 16 21 40 4z m266 -57 l0 -50 -72 0 c-45 0 -68 4 -59 9 10 7 11 10 1
16 -8 5 -18 1 -27 -10 -19 -27 -35 -7 -27 33 7 37 19 41 34 12 6 -11 16 -17
25 -14 9 4 18 -2 23 -17 5 -13 11 -18 15 -12 4 6 15 9 25 7 26 -6 42 9 45 44
3 51 17 37 17 -18z m81 -4 c-10 -12 -6 -15 18 -21 51 -11 46 -25 -8 -25 -47 0
-65 10 -41 25 5 3 7 12 3 20 -3 11 2 15 17 15 18 0 20 -3 11 -14z m-488 -26
c4 -16 0 -20 -19 -20 -21 0 -23 2 -12 25 12 27 23 26 31 -5z"/>
<path d="M6366 5253 c-11 -11 -6 -23 9 -23 8 0 15 4 15 9 0 13 -16 22 -24 14z"/>
<path d="M5730 5160 c0 -5 5 -10 11 -10 5 0 7 5 4 10 -3 6 -8 10 -11 10 -2 0
-4 -4 -4 -10z"/>
<path d="M6920 4935 c0 -10 7 -15 18 -13 21 4 19 22 -2 26 -10 2 -16 -3 -16
-13z"/>
<path d="M5720 4890 c0 -5 5 -10 10 -10 6 0 10 5 10 10 0 6 -4 10 -10 10 -5 0
-10 -4 -10 -10z"/>
<path d="M6924 4813 c1 -15 5 -34 10 -42 13 -20 25 6 17 37 -10 36 -29 39 -27
5z"/>
<path d="M6042 4520 c1 -29 2 -29 15 -10 8 11 11 25 8 30 -12 20 -24 9 -23
-20z"/>
<path d="M5980 4498 c0 -7 4 -19 9 -27 11 -17 23 1 15 23 -7 19 -24 21 -24 4z"/>
<path d="M6919 4466 c-3 -34 -1 -43 11 -41 8 1 17 13 21 26 l6 24 11 -27 c13
-33 32 -37 32 -7 0 31 -18 59 -35 53 -8 -4 -15 -1 -15 5 0 6 -6 11 -14 11 -9
0 -15 -15 -17 -44z"/>
<path d="M7050 4489 c0 -11 4 -18 10 -14 5 3 7 12 3 20 -7 21 -13 19 -13 -6z"/>
<path d="M5920 4453 c0 -12 -5 -23 -12 -25 -21 -7 6 -15 29 -9 22 6 22 6 3 31
-19 24 -20 24 -20 3z"/>
<path d="M5982 4438 c-14 -14 -16 -28 -3 -28 9 0 24 30 18 36 -2 2 -9 -2 -15
-8z"/>
<path d="M7038 4434 c-4 -3 -2 -19 3 -36 5 -17 6 -42 3 -55 -4 -14 -2 -23 5
-23 6 0 11 7 11 15 0 8 6 25 13 36 10 17 10 23 0 26 -7 3 -13 13 -13 24 0 18
-11 25 -22 13z"/>
<path d="M6090 4415 c0 -8 2 -15 4 -15 2 0 6 7 10 15 3 8 1 15 -4 15 -6 0 -10
-7 -10 -15z"/>
<path d="M7101 4391 c-12 -7 -12 -13 -3 -24 7 -7 9 -17 5 -20 -3 -4 2 -7 11
-7 10 0 16 6 13 13 -2 6 0 20 5 30 10 19 -7 23 -31 8z"/>
<path d="M6785 4351 c-6 -11 9 -23 19 -14 9 9 7 23 -3 23 -6 0 -12 -4 -16 -9z"/>
<path d="M6900 4341 c0 -17 18 -21 24 -6 3 9 0 15 -9 15 -8 0 -15 -4 -15 -9z"/>
<path d="M6095 4300 c3 -5 11 -10 16 -10 6 0 7 5 4 10 -3 6 -11 10 -16 10 -6
0 -7 -4 -4 -10z"/>
<path d="M6160 4300 c0 -5 5 -10 10 -10 6 0 10 5 10 10 0 6 -4 10 -10 10 -5 0
-10 -4 -10 -10z"/>
<path d="M6520 4301 c0 -5 7 -15 17 -22 15 -13 15 -12 4 9 -12 23 -21 28 -21
13z"/>
<path d="M6702 4294 c-12 -22 -4 -54 14 -54 9 0 14 11 14 29 0 35 -15 48 -28
25z"/>
<path d="M7100 4294 c0 -17 22 -14 28 4 2 7 -3 12 -12 12 -9 0 -16 -7 -16 -16z"/>
<path d="M6028 4283 c-6 -23 15 -63 28 -51 4 4 2 13 -3 20 -6 7 -13 22 -15 33
-4 19 -4 19 -10 -2z"/>
<path d="M6640 4290 c0 -5 5 -10 11 -10 5 0 7 5 4 10 -3 6 -8 10 -11 10 -2 0
-4 -4 -4 -10z"/>
<path d="M6795 4290 c3 -5 8 -10 11 -10 2 0 4 5 4 10 0 6 -5 10 -11 10 -5 0
-7 -4 -4 -10z"/>
<path d="M6441 4254 c0 -11 3 -14 6 -6 3 7 2 16 -1 19 -3 4 -6 -2 -5 -13z"/>
<path d="M6640 4228 c0 -19 2 -20 10 -8 13 19 13 30 0 30 -5 0 -10 -10 -10
-22z"/>
<path d="M6566 4179 c-16 -16 -17 -19 -4 -19 18 0 43 26 31 33 -4 2 -17 -4
-27 -14z"/>
<path d="M6120 4179 c0 -5 5 -7 10 -4 6 3 10 8 10 11 0 2 -4 4 -10 4 -5 0 -10
-5 -10 -11z"/>
<path d="M6375 4170 c-3 -5 -2 -10 4 -10 5 0 13 5 16 10 3 6 2 10 -4 10 -5 0
-13 -4 -16 -10z"/>
<path d="M6358 4145 c-10 -10 8 -69 22 -73 12 -4 13 -2 3 9 -16 20 -17 31 -3
39 7 4 9 13 6 19 -8 12 -19 14 -28 6z"/>
<path d="M6585 4139 c-10 -15 3 -25 16 -12 7 7 7 13 1 17 -6 3 -14 1 -17 -5z"/>
<path d="M6430 4130 c0 -5 5 -10 10 -10 6 0 10 5 10 10 0 6 -4 10 -10 10 -5 0
-10 -4 -10 -10z"/>
<path d="M6430 4097 c0 -21 12 -28 27 -16 19 16 16 29 -7 29 -11 0 -20 -6 -20
-13z"/>
<path d="M6310 3984 c0 -8 5 -12 10 -9 6 4 8 11 5 16 -9 14 -15 11 -15 -7z"/>
<path d="M6440 3930 c0 -6 7 -10 15 -10 8 0 15 2 15 4 0 2 -7 6 -15 10 -8 3
-15 1 -15 -4z"/>
<path d="M6367 3885 c-5 -10 0 -15 14 -15 12 0 19 5 17 12 -6 18 -25 20 -31 3z"/>
<path d="M6430 3861 c0 -35 2 -38 21 -34 14 4 18 11 13 22 -4 9 -6 24 -6 34 0
9 -6 17 -14 17 -10 0 -14 -12 -14 -39z"/>
<path d="M6780 3064 c0 -17 22 -14 28 4 2 7 -3 12 -12 12 -9 0 -16 -7 -16 -16z"/>
<path d="M6700 2945 c0 -8 5 -15 10 -15 6 0 10 7 10 15 0 8 -4 15 -10 15 -5 0
-10 -7 -10 -15z"/>
<path d="M6300 2713 c0 -4 5 -15 10 -23 8 -13 10 -13 10 2 0 9 -4 20 -10 23
-5 3 -10 3 -10 -2z"/>
<path d="M6295 2490 c-3 -5 1 -10 9 -10 9 0 16 5 16 10 0 6 -4 10 -9 10 -6 0
-13 -4 -16 -10z"/>
<path d="M4855 2820 c3 -5 10 -10 16 -10 5 0 9 5 9 10 0 6 -7 10 -16 10 -8 0
-12 -4 -9 -10z"/>
<path d="M4191 2784 c0 -11 3 -14 6 -6 3 7 2 16 -1 19 -3 4 -6 -2 -5 -13z"/>
<path d="M3970 2350 c0 -5 5 -10 10 -10 6 0 10 5 10 10 0 6 -4 10 -10 10 -5 0
-10 -4 -10 -10z"/>
<path d="M4470 2254 c0 -8 5 -12 10 -9 6 3 10 10 10 16 0 5 -4 9 -10 9 -5 0
-10 -7 -10 -16z"/>
<path d="M4107 2245 c-4 -8 -2 -17 3 -20 6 -4 10 3 10 14 0 25 -6 27 -13 6z"/>
<path d="M4700 2111 c0 -5 8 -8 18 -7 12 1 18 -8 20 -27 2 -16 8 -26 15 -24
15 5 11 48 -6 59 -16 11 -47 10 -47 -1z"/>
<path d="M6120 2090 c0 -5 4 -10 9 -10 6 0 13 5 16 10 3 6 -1 10 -9 10 -9 0
-16 -4 -16 -10z"/>
<path d="M4680 2066 c0 -8 5 -18 10 -21 6 -3 10 1 10 9 0 8 -4 18 -10 21 -5 3
-10 -1 -10 -9z"/>
<path d="M4368 2047 c-11 -9 -14 -18 -7 -28 8 -12 10 -12 19 1 9 13 14 40 8
40 -2 0 -11 -6 -20 -13z"/>
<path d="M4210 1865 c0 -5 5 -17 10 -25 5 -8 10 -10 10 -5 0 6 -5 17 -10 25
-5 8 -10 11 -10 5z"/>
<path d="M5441 1831 c-1 -24 2 -32 9 -25 7 7 7 19 1 35 -9 23 -10 22 -10 -10z"/>
<path d="M5560 1810 c0 -5 7 -7 15 -4 8 4 15 8 15 10 0 2 -7 4 -15 4 -8 0 -15
-4 -15 -10z"/>
<path d="M6185 1790 c3 -5 8 -10 11 -10 2 0 4 5 4 10 0 6 -5 10 -11 10 -5 0
-7 -4 -4 -10z"/>
<path d="M4281 1754 c0 -11 3 -14 6 -6 3 7 2 16 -1 19 -3 4 -6 -2 -5 -13z"/>
<path d="M5756 1625 c4 -8 8 -15 10 -15 2 0 4 7 4 15 0 8 -4 15 -10 15 -5 0
-7 -7 -4 -15z"/>
<path d="M5441 1574 c0 -11 3 -14 6 -6 3 7 2 16 -1 19 -3 4 -6 -2 -5 -13z"/>
<path d="M4512 1490 c1 -40 3 -51 5 -30 3 19 9 38 15 41 7 5 5 15 -6 30 -15
23 -16 21 -14 -41z"/>
<path d="M5312 1460 c0 -14 2 -19 5 -12 2 6 2 18 0 25 -3 6 -5 1 -5 -13z"/>
<path d="M2762 2378 c2 -6 10 -14 16 -16 7 -2 10 2 6 12 -7 18 -28 22 -22 4z"/>
<path d="M2470 7035 c7 -9 15 -13 17 -11 7 7 -7 26 -19 26 -6 0 -6 -6 2 -15z"/>
<path d="M6740 6906 c0 -8 5 -18 10 -21 6 -3 10 3 10 14 0 12 -4 21 -10 21 -5
0 -10 -6 -10 -14z"/>
<path d="M6655 6900 c-7 -12 2 -30 16 -30 12 0 12 27 0 35 -5 3 -12 1 -16 -5z"/>
<path d="M6760 6862 c0 -5 10 -17 21 -28 22 -19 22 -19 10 3 -12 24 -31 39
-31 25z"/>
<path d="M2330 6750 c0 -5 7 -10 16 -10 8 0 12 5 9 10 -3 6 -10 10 -16 10 -5
0 -9 -4 -9 -10z"/>
<path d="M2197 6677 c-3 -8 -1 -20 4 -28 5 -8 9 -12 10 -9 0 3 2 15 5 28 4 24
-10 31 -19 9z"/>
<path d="M2337 6625 c3 -20 1 -35 -4 -35 -7 0 -7 -15 -3 -41 4 -23 4 -54 0
-70 -6 -19 -4 -33 6 -46 14 -18 16 -16 19 27 5 55 5 86 2 110 -3 14 -5 40 -6
58 0 17 -5 32 -10 32 -6 0 -7 -16 -4 -35z"/>
<path d="M2272 6605 c0 -16 2 -22 5 -12 2 9 2 23 0 30 -3 6 -5 -1 -5 -18z"/>
<path d="M2200 6586 c0 -9 5 -16 10 -16 6 0 10 4 10 9 0 6 -4 13 -10 16 -5 3
-10 -1 -10 -9z"/>
<path d="M2210 6542 c0 -6 5 -14 11 -18 8 -4 8 -9 0 -17 -18 -18 -13 -25 14
-19 27 5 32 -7 15 -38 -7 -13 -7 -21 0 -25 6 -3 13 1 16 9 3 9 10 14 14 11 11
-7 20 48 10 59 -5 5 -6 15 -3 22 3 10 -2 14 -18 13 -13 -1 -32 2 -41 6 -11 4
-18 3 -18 -3z"/>
<path d="M2200 6460 c0 -5 7 -10 16 -10 8 0 12 5 9 10 -3 6 -10 10 -16 10 -5
0 -9 -4 -9 -10z"/>
<path d="M4700 6415 c0 -14 5 -25 10 -25 6 0 10 11 10 25 0 14 -4 25 -10 25
-5 0 -10 -11 -10 -25z"/>
<path d="M2260 6390 c0 -5 5 -10 10 -10 6 0 10 5 10 10 0 6 -4 10 -10 10 -5 0
-10 -4 -10 -10z"/>
<path d="M2200 6361 c0 -12 5 -21 10 -21 6 0 10 6 10 14 0 8 -4 18 -10 21 -5
3 -10 -3 -10 -14z"/>
<path d="M4761 6364 c0 -11 3 -14 6 -6 3 7 2 16 -1 19 -3 4 -6 -2 -5 -13z"/>
<path d="M2207 6303 c-4 -3 -7 -11 -7 -17 0 -6 5 -5 12 2 6 6 9 14 7 17 -3 3
-9 2 -12 -2z"/>
<path d="M2095 6240 c3 -10 1 -28 -4 -39 -6 -11 -8 -27 -4 -36 5 -15 8 -14 19
6 18 33 17 76 -2 83 -12 4 -14 1 -9 -14z"/>
<path d="M2143 6155 c-8 -43 -7 -58 4 -66 11 -9 13 1 13 55 0 36 -1 66 -3 66
-2 0 -8 -25 -14 -55z"/>
<path d="M2202 6144 c1 -9 9 -19 16 -22 9 -3 13 2 10 14 -1 9 -9 19 -16 22 -9
3 -13 -2 -10 -14z"/>
<path d="M2090 6095 c0 -8 5 -15 10 -15 6 0 10 7 10 15 0 8 -4 15 -10 15 -5 0
-10 -7 -10 -15z"/>
<path d="M2088 5972 c-3 -9 -2 -26 2 -37 6 -16 8 -12 12 18 4 38 -6 52 -14 19z"/>
<path d="M2020 5940 c0 -5 5 -10 10 -10 6 0 10 5 10 10 0 6 -4 10 -10 10 -5 0
-10 -4 -10 -10z"/>
<path d="M2026 5900 c-3 -8 -8 -52 -9 -98 -3 -68 -2 -80 9 -71 8 6 14 8 15 3
0 -5 5 5 10 21 5 19 5 31 -1 33 -11 4 -3 50 12 68 5 7 1 20 -11 35 -16 19 -21
21 -25 9z"/>
<path d="M2088 5883 c-6 -23 1 -43 14 -43 6 0 6 6 -2 15 -10 12 -10 15 4 15 9
0 16 7 16 15 0 21 -27 19 -32 -2z"/>
<path d="M2080 5768 c0 -7 5 -20 10 -28 8 -12 10 -9 10 13 0 15 -4 27 -10 27
-5 0 -10 -6 -10 -12z"/>
<path d="M2190 5758 c0 -9 5 -20 10 -23 13 -8 13 5 0 25 -8 13 -10 13 -10 -2z"/>
<path d="M2017 5703 c-2 -5 -1 -19 4 -33 4 -16 7 -19 8 -7 1 9 5 17 11 17 5 0
7 7 4 15 -7 16 -20 20 -27 8z"/>
<path d="M2191 5694 c0 -11 3 -14 6 -6 3 7 2 16 -1 19 -3 4 -6 -2 -5 -13z"/>
<path d="M2152 5662 c-6 -14 -12 -35 -11 -46 0 -16 3 -14 11 9 6 17 15 35 20
42 5 6 5 13 1 16 -5 3 -14 -6 -21 -21z"/>
<path d="M2010 5630 c0 -5 5 -10 10 -10 6 0 10 5 10 10 0 6 -4 10 -10 10 -5 0
-10 -4 -10 -10z"/>
<path d="M2020 5605 c-9 -19 -5 -125 5 -125 6 0 10 17 10 38 1 45 -9 101 -15
87z"/>
<path d="M2082 5543 c2 -9 8 -18 15 -20 7 -3 9 3 6 16 -6 25 -26 28 -21 4z"/>
<path d="M3368 5523 c6 -2 18 -2 25 0 6 3 1 5 -13 5 -14 0 -19 -2 -12 -5z"/>
<path d="M3418 5523 c7 -3 16 -2 19 1 4 3 -2 6 -13 5 -11 0 -14 -3 -6 -6z"/>
<path d="M2140 5511 c0 -6 5 -13 10 -16 6 -3 10 1 10 9 0 9 -4 16 -10 16 -5 0
-10 -4 -10 -9z"/>
<path d="M2011 5436 c-9 -11 -10 -20 -1 -35 11 -22 30 -28 30 -11 0 6 -4 10
-10 10 -14 0 -12 37 3 43 7 4 8 6 1 6 -6 1 -17 -5 -23 -13z"/>
<path d="M2340 5440 c0 -5 5 -10 11 -10 5 0 7 5 4 10 -3 6 -8 10 -11 10 -2 0
-4 -4 -4 -10z"/>
<path d="M2118 5428 c12 -6 22 -17 22 -24 0 -7 5 -16 10 -19 16 -10 11 22 -6
39 -8 9 -23 16 -32 15 -13 0 -11 -3 6 -11z"/>
<path d="M2311 5393 c-12 -13 -12 -17 2 -25 10 -5 17 -16 17 -23 0 -8 4 -15 8
-15 4 0 8 18 9 40 2 43 -11 51 -36 23z"/>
<path d="M2380 5400 c0 -6 7 -10 15 -10 8 0 15 2 15 4 0 2 -7 6 -15 10 -8 3
-15 1 -15 -4z"/>
<path d="M2081 5386 c-8 -10 -9 -16 -1 -21 5 -3 13 1 16 10 9 22 -1 29 -15 11z"/>
<path d="M2258 5393 c7 -3 16 -2 19 1 4 3 -2 6 -13 5 -11 0 -14 -3 -6 -6z"/>
<path d="M4225 5380 c3 -5 10 -10 16 -10 5 0 9 5 9 10 0 6 -7 10 -16 10 -8 0
-12 -4 -9 -10z"/>
<path d="M2190 5353 c0 -28 61 -46 76 -21 5 8 2 9 -10 5 -9 -4 -28 0 -42 9
-13 9 -24 12 -24 7z"/>
<path d="M4440 5330 c0 -11 5 -20 10 -20 6 0 10 9 10 20 0 11 -4 20 -10 20 -5
0 -10 -9 -10 -20z"/>
<path d="M2010 5330 c0 -5 5 -10 10 -10 6 0 10 5 10 10 0 6 -4 10 -10 10 -5 0
-10 -4 -10 -10z"/>
<path d="M2084 5331 c3 -5 14 -11 25 -14 14 -3 18 -1 14 9 -3 8 -14 14 -25 14
-10 0 -17 -4 -14 -9z"/>
<path d="M4403 5314 c0 -23 1 -24 14 -11 9 8 12 20 9 26 -12 19 -23 12 -23
-15z"/>
<path d="M2140 5295 c0 -8 4 -15 10 -15 5 0 7 7 4 15 -4 8 -8 15 -10 15 -2 0
-4 -7 -4 -15z"/>
<path d="M2782 5301 c4 -13 18 -16 19 -4 0 4 -5 9 -11 12 -7 2 -11 -2 -8 -8z"/>
<path d="M2081 5264 c0 -11 3 -14 6 -6 3 7 2 16 -1 19 -3 4 -6 -2 -5 -13z"/>
<path d="M2137 5243 c-14 -13 -7 -40 15 -59 20 -18 21 -18 15 -1 -4 10 -7 30
-7 43 0 23 -10 31 -23 17z"/>
<path d="M2085 5230 c-4 -6 3 -10 14 -10 25 0 27 6 6 13 -8 4 -17 2 -20 -3z"/>
<path d="M2801 5184 c0 -11 3 -14 6 -6 3 7 2 16 -1 19 -3 4 -6 -2 -5 -13z"/>
<path d="M2861 5186 c-9 -11 -9 -16 0 -21 10 -7 28 10 29 28 0 12 -17 8 -29
-7z"/>
<path d="M5392 5179 c-9 -24 5 -86 16 -74 6 6 4 87 -3 94 -3 2 -9 -7 -13 -20z"/>
<path d="M2706 5162 c-7 -11 13 -52 26 -52 17 0 16 20 0 41 -13 15 -21 18 -26
11z"/>
<path d="M4760 5130 c0 -5 5 -10 11 -10 5 0 7 5 4 10 -3 6 -8 10 -11 10 -2 0
-4 -4 -4 -10z"/>
<path d="M2140 5103 c0 -5 5 -15 10 -23 8 -12 10 -11 10 8 0 12 -4 22 -10 22
-5 0 -10 -3 -10 -7z"/>
<path d="M2670 5100 c0 -5 5 -10 11 -10 5 0 7 5 4 10 -3 6 -8 10 -11 10 -2 0
-4 -4 -4 -10z"/>
<path d="M4630 4951 c0 -5 5 -13 10 -16 6 -3 10 -2 10 4 0 5 -4 13 -10 16 -5
3 -10 2 -10 -4z"/>
<path d="M5392 4938 c5 -15 48 -24 48 -10 0 10 -23 22 -42 22 -5 0 -8 -6 -6
-12z"/>
<path d="M5400 4894 c0 -8 5 -12 10 -9 6 3 10 10 10 16 0 5 -4 9 -10 9 -5 0
-10 -7 -10 -16z"/>
<path d="M2145 4890 c3 -5 8 -10 11 -10 2 0 4 5 4 10 0 6 -5 10 -11 10 -5 0
-7 -4 -4 -10z"/>
<path d="M2208 4645 c-7 -7 3 -55 11 -55 4 0 6 14 3 30 -4 32 -5 33 -14 25z"/>
<path d="M2270 4621 c0 -11 4 -22 9 -25 4 -3 6 6 3 19 -5 30 -12 33 -12 6z"/>
<path d="M2350 4625 c0 -8 2 -15 4 -15 2 0 6 7 10 15 3 8 1 15 -4 15 -6 0 -10
-7 -10 -15z"/>
<path d="M1315 4589 c-11 -17 1 -21 15 -4 8 9 8 15 2 15 -6 0 -14 -5 -17 -11z"/>
<path d="M2270 4535 c0 -9 6 -12 15 -9 8 4 15 10 15 15 0 5 -7 9 -15 9 -8 0
-15 -7 -15 -15z"/>
<path d="M2151 4494 c0 -11 3 -14 6 -6 3 7 2 16 -1 19 -3 4 -6 -2 -5 -13z"/>
<path d="M2282 4499 c2 -7 10 -15 17 -17 8 -3 12 1 9 9 -2 7 -10 15 -17 17 -8
3 -12 -1 -9 -9z"/>
<path d="M2210 4446 c0 -9 5 -16 10 -16 6 0 10 4 10 9 0 6 -4 13 -10 16 -5 3
-10 -1 -10 -9z"/>
<path d="M2270 4425 c0 -18 19 -40 26 -32 4 4 0 15 -9 24 -9 10 -17 13 -17 8z"/>
<path d="M2140 4412 c0 -12 19 -26 26 -19 2 2 -2 10 -11 17 -9 8 -15 8 -15 2z"/>
<path d="M2213 4385 c0 -22 2 -30 4 -17 2 12 2 30 0 40 -3 9 -5 -1 -4 -23z"/>
<path d="M4016 4332 c4 -19 1 -32 -10 -41 -13 -11 -17 -9 -26 15 -14 37 -27
17 -22 -33 4 -33 6 -35 17 -19 13 16 14 16 23 0 13 -24 46 -11 37 16 -3 10 -2
27 4 37 6 12 6 25 0 36 -15 27 -29 20 -23 -11z"/>
<path d="M2275 4339 c-4 -6 -5 -12 -2 -15 2 -3 7 2 10 11 7 17 1 20 -8 4z"/>
<path d="M2197 4303 c-6 -11 9 -49 22 -58 6 -3 11 1 11 9 0 9 -4 16 -9 16 -5
0 -7 9 -4 20 5 19 -11 29 -20 13z"/>
<path d="M2330 4271 c0 -5 3 -17 6 -26 5 -13 8 -14 15 -3 12 19 11 25 -6 32
-8 3 -15 1 -15 -3z"/>
<path d="M2130 4232 c0 -5 7 -16 16 -23 14 -12 16 -11 13 5 -4 20 -29 35 -29
18z"/>
<path d="M2013 4201 c1 -15 4 -17 14 -9 17 14 16 28 -1 28 -8 0 -14 -9 -13
-19z"/>
<path d="M2205 4200 c-3 -5 -1 -10 4 -10 6 0 11 5 11 10 0 6 -2 10 -4 10 -3 0
-8 -4 -11 -10z"/>
<path d="M7285 4148 c-8 -32 1 -78 15 -78 12 0 12 57 0 85 -7 18 -8 18 -15 -7z"/>
<path d="M2133 4135 c-7 -8 -13 -16 -13 -19 0 -2 6 -6 13 -9 7 -3 13 5 13 19
1 13 1 24 0 24 0 -1 -7 -7 -13 -15z"/>
<path d="M2220 4140 c0 -5 7 -10 16 -10 8 0 12 5 9 10 -3 6 -10 10 -16 10 -5
0 -9 -4 -9 -10z"/>
<path d="M2270 4091 c0 -17 -5 -33 -11 -37 -7 -4 -9 -23 -5 -50 6 -45 -6 -66
-27 -45 -18 18 -29 13 -22 -10 4 -13 0 -27 -11 -40 -11 -12 -13 -19 -5 -19 8
0 10 -7 6 -20 -4 -14 -2 -20 8 -20 9 0 14 11 15 31 1 41 19 61 33 37 15 -27
27 -21 31 15 2 24 8 33 26 35 16 3 22 -2 22 -17 0 -11 -5 -23 -10 -26 -18 -11
7 -64 30 -65 8 0 5 104 -4 118 -4 7 -12 10 -17 7 -5 -4 -9 -1 -9 5 0 7 -5 10
-12 8 -6 -2 -20 4 -30 14 -22 22 -23 28 -3 28 11 0 15 11 15 40 0 22 -4 40
-10 40 -5 0 -10 -13 -10 -29z"/>
<path d="M2065 4070 c-3 -5 -1 -18 4 -27 9 -16 10 -14 11 10 0 28 -5 34 -15
17z"/>
<path d="M2134 4048 c-11 -22 -13 -33 -5 -36 16 -5 14 -33 -6 -54 -15 -17 -15
-20 6 -42 19 -20 20 -26 8 -33 -18 -10 -32 -63 -16 -63 6 0 9 -7 5 -15 -3 -9
0 -15 8 -15 8 0 16 16 20 39 3 22 12 41 18 44 10 3 10 7 -1 21 -9 11 -12 30
-8 59 3 23 2 51 -3 62 -4 11 -4 28 1 37 6 10 5 19 -1 23 -5 3 -17 -9 -26 -27z"/>
<path d="M2330 4030 c0 -33 15 -41 22 -12 6 21 -1 42 -13 42 -5 0 -9 -13 -9
-30z"/>
<path d="M2410 3905 c0 -8 7 -15 16 -15 14 0 14 3 4 15 -7 8 -14 15 -16 15 -2
0 -4 -7 -4 -15z"/>
<path d="M2266 3823 c-12 -12 -6 -33 9 -33 8 0 15 6 15 14 0 17 -14 28 -24 19z"/>
<path d="M2386 3694 c-8 -22 4 -40 15 -23 11 18 11 39 0 39 -5 0 -12 -7 -15
-16z"/>
<path d="M2650 3665 c0 -14 4 -25 9 -25 5 0 8 11 7 25 -1 33 -16 33 -16 0z"/>
<path d="M2459 3655 c-1 -3 -2 -8 -3 -12 -1 -5 -5 -13 -9 -20 -4 -6 -3 -14 3
-18 5 -3 10 -17 10 -31 0 -13 4 -24 8 -24 4 0 8 25 8 55 -1 30 -4 55 -8 55 -5
0 -9 -2 -9 -5z"/>
<path d="M2706 3652 c-4 -8 -3 -76 6 -214 3 -55 21 -69 26 -20 4 43 34 40 43
-3 l6 -30 7 35 c8 41 11 91 8 143 -3 49 -27 45 -28 -4 -2 -79 -3 -82 -19 -69
-17 14 -21 60 -5 60 5 0 0 16 -11 35 -13 21 -18 42 -14 55 6 19 -8 29 -19 12z"/>
<path d="M2388 3583 c-3 -28 10 -73 21 -73 3 0 6 23 6 50 0 54 -21 71 -27 23z"/>
<path d="M2912 3580 c0 -19 2 -27 5 -17 2 9 2 25 0 35 -3 9 -5 1 -5 -18z"/>
<path d="M2520 3569 c0 -17 4 -28 10 -24 6 3 10 17 10 31 0 13 -4 24 -10 24
-5 0 -10 -14 -10 -31z"/>
<path d="M2647 3566 c-7 -16 1 -26 20 -26 7 0 13 9 13 20 0 23 -25 27 -33 6z"/>
<path d="M2860 3564 c0 -8 5 -12 10 -9 6 4 8 11 5 16 -9 14 -15 11 -15 -7z"/>
<path d="M3856 3555 c-7 -19 3 -19 28 0 19 15 19 15 -1 15 -11 0 -23 -7 -27
-15z"/>
<path d="M2529 3503 c-13 -16 -12 -17 4 -4 9 7 17 15 17 17 0 8 -8 3 -21 -13z"/>
<path d="M2392 3453 c2 -11 -2 -26 -9 -34 -7 -9 -9 -20 -3 -29 8 -13 12 -12
24 5 13 17 18 18 36 7 28 -17 38 -9 38 33 0 41 -14 46 -28 10 -12 -31 -41 -34
-37 -4 1 12 -4 24 -11 27 -9 3 -12 -3 -10 -15z"/>
<path d="M2974 3435 c-3 -20 -4 -39 0 -42 9 -9 13 -2 19 40 7 47 -10 49 -19 2z"/>
<path d="M2660 3410 c0 -5 5 -10 10 -10 6 0 10 5 10 10 0 6 -4 10 -10 10 -5 0
-10 -4 -10 -10z"/>
<path d="M2327 3342 c-18 -20 -22 -48 -8 -56 10 -6 8 -63 -2 -73 -4 -3 -2 -12
4 -19 7 -8 7 -14 -1 -19 -7 -4 -7 -12 1 -26 8 -15 7 -24 -2 -35 -9 -11 -9 -18
-1 -26 8 -8 13 -6 18 8 3 10 12 33 20 51 16 36 18 73 4 73 -6 0 -10 12 -9 28
1 15 -1 34 -5 43 -4 10 -3 20 3 24 13 7 15 45 3 45 -5 0 -16 -8 -25 -18z"/>
<path d="M2985 3350 c3 -5 8 -10 11 -10 2 0 4 5 4 10 0 6 -5 10 -11 10 -5 0
-7 -4 -4 -10z"/>
<path d="M2586 3341 c-4 -5 -2 -12 3 -15 5 -4 12 -2 15 3 4 5 2 12 -3 15 -5 4
-12 2 -15 -3z"/>
<path d="M2910 3288 c0 -12 1 -19 3 -17 1 2 9 12 16 22 12 14 11 17 -3 17 -10
0 -16 -8 -16 -22z"/>
<path d="M2974 3286 c-7 -19 1 -46 15 -46 15 0 20 39 5 51 -11 9 -15 8 -20 -5z"/>
<path d="M2923 3215 c-8 -8 -9 -16 -3 -20 5 -3 7 -12 3 -20 -3 -8 0 -15 6 -15
6 0 11 16 11 35 0 39 0 40 -17 20z"/>
<path d="M2992 3210 c0 -14 2 -19 5 -12 2 6 2 18 0 25 -3 6 -5 1 -5 -13z"/>
<path d="M3046 3214 c-9 -22 -8 -24 9 -24 8 0 15 9 15 20 0 24 -15 27 -24 4z"/>
<path d="M2985 3171 c-3 -5 -1 -12 5 -16 5 -3 10 1 10 9 0 18 -6 21 -15 7z"/>
<path d="M2975 3110 c-8 -13 4 -32 16 -25 12 8 12 35 0 35 -6 0 -13 -4 -16
-10z"/>
<path d="M2950 3055 c0 -16 9 -19 34 -9 25 9 19 24 -9 24 -16 0 -25 -6 -25
-15z"/>
<path d="M2920 3010 c0 -11 7 -20 15 -20 8 0 15 5 15 10 0 6 5 10 10 10 6 0
10 -7 10 -16 0 -8 5 -12 11 -9 21 13 4 38 -28 41 -27 3 -33 0 -33 -16z"/>
<path d="M3045 2950 c-3 -5 -1 -10 4 -10 6 0 11 5 11 10 0 6 -2 10 -4 10 -3 0
-8 -4 -11 -10z"/>
<path d="M3172 2894 c-16 -17 -12 -47 4 -36 14 9 28 52 17 52 -4 -1 -14 -7
-21 -16z"/>
<path d="M2521 2873 c0 -25 1 -26 9 -8 12 27 12 35 0 35 -5 0 -10 -12 -9 -27z"/>
<path d="M2585 2810 c-4 -6 -3 -14 0 -20 9 -15 35 -12 35 4 0 17 -27 29 -35
16z"/>
<path d="M2520 2799 c0 -5 5 -7 10 -4 6 3 10 8 10 11 0 2 -4 4 -10 4 -5 0 -10
-5 -10 -11z"/>
<path d="M2592 2735 c0 -16 2 -22 5 -12 2 9 2 23 0 30 -3 6 -5 -1 -5 -18z"/>
<path d="M2642 2746 c1 -10 8 -17 13 -17 15 1 12 24 -3 29 -9 3 -13 -2 -10
-12z"/>
<path d="M2722 2748 c-14 -14 -16 -38 -3 -38 8 0 23 41 17 47 -1 1 -8 -3 -14
-9z"/>
<path d="M2913 2605 c-9 -24 1 -27 15 -5 8 13 8 20 2 20 -6 0 -13 -7 -17 -15z"/>
</g>
</svg>
